G04 #@! TF.GenerationSoftware,KiCad,Pcbnew,5.1.5+dfsg1-2build2*
G04 #@! TF.CreationDate,2020-08-08T12:50:20+01:00*
G04 #@! TF.ProjectId,stoutgatv2,73746f75-7467-4617-9476-322e6b696361,0.2*
G04 #@! TF.SameCoordinates,Original*
G04 #@! TF.FileFunction,Paste,Bot*
G04 #@! TF.FilePolarity,Positive*
%FSLAX46Y46*%
G04 Gerber Fmt 4.6, Leading zero omitted, Abs format (unit mm)*
G04 Created by KiCad (PCBNEW 5.1.5+dfsg1-2build2) date 2020-08-08 12:50:20*
%MOMM*%
%LPD*%
G04 APERTURE LIST*
%ADD10C,0.100000*%
%ADD11R,1.500000X1.000000*%
%ADD12R,1.000000X1.500000*%
G04 APERTURE END LIST*
D10*
G36*
X384391842Y-164223374D02*
G01*
X384415503Y-164226884D01*
X384438707Y-164232696D01*
X384461229Y-164240754D01*
X384482853Y-164250982D01*
X384503370Y-164263279D01*
X384522583Y-164277529D01*
X384540307Y-164293593D01*
X384556371Y-164311317D01*
X384570621Y-164330530D01*
X384582918Y-164351047D01*
X384593146Y-164372671D01*
X384601204Y-164395193D01*
X384607016Y-164418397D01*
X384610526Y-164442058D01*
X384611700Y-164465950D01*
X384611700Y-165378450D01*
X384610526Y-165402342D01*
X384607016Y-165426003D01*
X384601204Y-165449207D01*
X384593146Y-165471729D01*
X384582918Y-165493353D01*
X384570621Y-165513870D01*
X384556371Y-165533083D01*
X384540307Y-165550807D01*
X384522583Y-165566871D01*
X384503370Y-165581121D01*
X384482853Y-165593418D01*
X384461229Y-165603646D01*
X384438707Y-165611704D01*
X384415503Y-165617516D01*
X384391842Y-165621026D01*
X384367950Y-165622200D01*
X383880450Y-165622200D01*
X383856558Y-165621026D01*
X383832897Y-165617516D01*
X383809693Y-165611704D01*
X383787171Y-165603646D01*
X383765547Y-165593418D01*
X383745030Y-165581121D01*
X383725817Y-165566871D01*
X383708093Y-165550807D01*
X383692029Y-165533083D01*
X383677779Y-165513870D01*
X383665482Y-165493353D01*
X383655254Y-165471729D01*
X383647196Y-165449207D01*
X383641384Y-165426003D01*
X383637874Y-165402342D01*
X383636700Y-165378450D01*
X383636700Y-164465950D01*
X383637874Y-164442058D01*
X383641384Y-164418397D01*
X383647196Y-164395193D01*
X383655254Y-164372671D01*
X383665482Y-164351047D01*
X383677779Y-164330530D01*
X383692029Y-164311317D01*
X383708093Y-164293593D01*
X383725817Y-164277529D01*
X383745030Y-164263279D01*
X383765547Y-164250982D01*
X383787171Y-164240754D01*
X383809693Y-164232696D01*
X383832897Y-164226884D01*
X383856558Y-164223374D01*
X383880450Y-164222200D01*
X384367950Y-164222200D01*
X384391842Y-164223374D01*
G37*
G36*
X382516842Y-164223374D02*
G01*
X382540503Y-164226884D01*
X382563707Y-164232696D01*
X382586229Y-164240754D01*
X382607853Y-164250982D01*
X382628370Y-164263279D01*
X382647583Y-164277529D01*
X382665307Y-164293593D01*
X382681371Y-164311317D01*
X382695621Y-164330530D01*
X382707918Y-164351047D01*
X382718146Y-164372671D01*
X382726204Y-164395193D01*
X382732016Y-164418397D01*
X382735526Y-164442058D01*
X382736700Y-164465950D01*
X382736700Y-165378450D01*
X382735526Y-165402342D01*
X382732016Y-165426003D01*
X382726204Y-165449207D01*
X382718146Y-165471729D01*
X382707918Y-165493353D01*
X382695621Y-165513870D01*
X382681371Y-165533083D01*
X382665307Y-165550807D01*
X382647583Y-165566871D01*
X382628370Y-165581121D01*
X382607853Y-165593418D01*
X382586229Y-165603646D01*
X382563707Y-165611704D01*
X382540503Y-165617516D01*
X382516842Y-165621026D01*
X382492950Y-165622200D01*
X382005450Y-165622200D01*
X381981558Y-165621026D01*
X381957897Y-165617516D01*
X381934693Y-165611704D01*
X381912171Y-165603646D01*
X381890547Y-165593418D01*
X381870030Y-165581121D01*
X381850817Y-165566871D01*
X381833093Y-165550807D01*
X381817029Y-165533083D01*
X381802779Y-165513870D01*
X381790482Y-165493353D01*
X381780254Y-165471729D01*
X381772196Y-165449207D01*
X381766384Y-165426003D01*
X381762874Y-165402342D01*
X381761700Y-165378450D01*
X381761700Y-164465950D01*
X381762874Y-164442058D01*
X381766384Y-164418397D01*
X381772196Y-164395193D01*
X381780254Y-164372671D01*
X381790482Y-164351047D01*
X381802779Y-164330530D01*
X381817029Y-164311317D01*
X381833093Y-164293593D01*
X381850817Y-164277529D01*
X381870030Y-164263279D01*
X381890547Y-164250982D01*
X381912171Y-164240754D01*
X381934693Y-164232696D01*
X381957897Y-164226884D01*
X381981558Y-164223374D01*
X382005450Y-164222200D01*
X382492950Y-164222200D01*
X382516842Y-164223374D01*
G37*
G36*
X378990942Y-124380074D02*
G01*
X379014603Y-124383584D01*
X379037807Y-124389396D01*
X379060329Y-124397454D01*
X379081953Y-124407682D01*
X379102470Y-124419979D01*
X379121683Y-124434229D01*
X379139407Y-124450293D01*
X379155471Y-124468017D01*
X379169721Y-124487230D01*
X379182018Y-124507747D01*
X379192246Y-124529371D01*
X379200304Y-124551893D01*
X379206116Y-124575097D01*
X379209626Y-124598758D01*
X379210800Y-124622650D01*
X379210800Y-125110150D01*
X379209626Y-125134042D01*
X379206116Y-125157703D01*
X379200304Y-125180907D01*
X379192246Y-125203429D01*
X379182018Y-125225053D01*
X379169721Y-125245570D01*
X379155471Y-125264783D01*
X379139407Y-125282507D01*
X379121683Y-125298571D01*
X379102470Y-125312821D01*
X379081953Y-125325118D01*
X379060329Y-125335346D01*
X379037807Y-125343404D01*
X379014603Y-125349216D01*
X378990942Y-125352726D01*
X378967050Y-125353900D01*
X378054550Y-125353900D01*
X378030658Y-125352726D01*
X378006997Y-125349216D01*
X377983793Y-125343404D01*
X377961271Y-125335346D01*
X377939647Y-125325118D01*
X377919130Y-125312821D01*
X377899917Y-125298571D01*
X377882193Y-125282507D01*
X377866129Y-125264783D01*
X377851879Y-125245570D01*
X377839582Y-125225053D01*
X377829354Y-125203429D01*
X377821296Y-125180907D01*
X377815484Y-125157703D01*
X377811974Y-125134042D01*
X377810800Y-125110150D01*
X377810800Y-124622650D01*
X377811974Y-124598758D01*
X377815484Y-124575097D01*
X377821296Y-124551893D01*
X377829354Y-124529371D01*
X377839582Y-124507747D01*
X377851879Y-124487230D01*
X377866129Y-124468017D01*
X377882193Y-124450293D01*
X377899917Y-124434229D01*
X377919130Y-124419979D01*
X377939647Y-124407682D01*
X377961271Y-124397454D01*
X377983793Y-124389396D01*
X378006997Y-124383584D01*
X378030658Y-124380074D01*
X378054550Y-124378900D01*
X378967050Y-124378900D01*
X378990942Y-124380074D01*
G37*
G36*
X378990942Y-122505074D02*
G01*
X379014603Y-122508584D01*
X379037807Y-122514396D01*
X379060329Y-122522454D01*
X379081953Y-122532682D01*
X379102470Y-122544979D01*
X379121683Y-122559229D01*
X379139407Y-122575293D01*
X379155471Y-122593017D01*
X379169721Y-122612230D01*
X379182018Y-122632747D01*
X379192246Y-122654371D01*
X379200304Y-122676893D01*
X379206116Y-122700097D01*
X379209626Y-122723758D01*
X379210800Y-122747650D01*
X379210800Y-123235150D01*
X379209626Y-123259042D01*
X379206116Y-123282703D01*
X379200304Y-123305907D01*
X379192246Y-123328429D01*
X379182018Y-123350053D01*
X379169721Y-123370570D01*
X379155471Y-123389783D01*
X379139407Y-123407507D01*
X379121683Y-123423571D01*
X379102470Y-123437821D01*
X379081953Y-123450118D01*
X379060329Y-123460346D01*
X379037807Y-123468404D01*
X379014603Y-123474216D01*
X378990942Y-123477726D01*
X378967050Y-123478900D01*
X378054550Y-123478900D01*
X378030658Y-123477726D01*
X378006997Y-123474216D01*
X377983793Y-123468404D01*
X377961271Y-123460346D01*
X377939647Y-123450118D01*
X377919130Y-123437821D01*
X377899917Y-123423571D01*
X377882193Y-123407507D01*
X377866129Y-123389783D01*
X377851879Y-123370570D01*
X377839582Y-123350053D01*
X377829354Y-123328429D01*
X377821296Y-123305907D01*
X377815484Y-123282703D01*
X377811974Y-123259042D01*
X377810800Y-123235150D01*
X377810800Y-122747650D01*
X377811974Y-122723758D01*
X377815484Y-122700097D01*
X377821296Y-122676893D01*
X377829354Y-122654371D01*
X377839582Y-122632747D01*
X377851879Y-122612230D01*
X377866129Y-122593017D01*
X377882193Y-122575293D01*
X377899917Y-122559229D01*
X377919130Y-122544979D01*
X377939647Y-122532682D01*
X377961271Y-122522454D01*
X377983793Y-122514396D01*
X378006997Y-122508584D01*
X378030658Y-122505074D01*
X378054550Y-122503900D01*
X378967050Y-122503900D01*
X378990942Y-122505074D01*
G37*
G36*
X275993942Y-180996674D02*
G01*
X276017603Y-181000184D01*
X276040807Y-181005996D01*
X276063329Y-181014054D01*
X276084953Y-181024282D01*
X276105470Y-181036579D01*
X276124683Y-181050829D01*
X276142407Y-181066893D01*
X276158471Y-181084617D01*
X276172721Y-181103830D01*
X276185018Y-181124347D01*
X276195246Y-181145971D01*
X276203304Y-181168493D01*
X276209116Y-181191697D01*
X276212626Y-181215358D01*
X276213800Y-181239250D01*
X276213800Y-181726750D01*
X276212626Y-181750642D01*
X276209116Y-181774303D01*
X276203304Y-181797507D01*
X276195246Y-181820029D01*
X276185018Y-181841653D01*
X276172721Y-181862170D01*
X276158471Y-181881383D01*
X276142407Y-181899107D01*
X276124683Y-181915171D01*
X276105470Y-181929421D01*
X276084953Y-181941718D01*
X276063329Y-181951946D01*
X276040807Y-181960004D01*
X276017603Y-181965816D01*
X275993942Y-181969326D01*
X275970050Y-181970500D01*
X275057550Y-181970500D01*
X275033658Y-181969326D01*
X275009997Y-181965816D01*
X274986793Y-181960004D01*
X274964271Y-181951946D01*
X274942647Y-181941718D01*
X274922130Y-181929421D01*
X274902917Y-181915171D01*
X274885193Y-181899107D01*
X274869129Y-181881383D01*
X274854879Y-181862170D01*
X274842582Y-181841653D01*
X274832354Y-181820029D01*
X274824296Y-181797507D01*
X274818484Y-181774303D01*
X274814974Y-181750642D01*
X274813800Y-181726750D01*
X274813800Y-181239250D01*
X274814974Y-181215358D01*
X274818484Y-181191697D01*
X274824296Y-181168493D01*
X274832354Y-181145971D01*
X274842582Y-181124347D01*
X274854879Y-181103830D01*
X274869129Y-181084617D01*
X274885193Y-181066893D01*
X274902917Y-181050829D01*
X274922130Y-181036579D01*
X274942647Y-181024282D01*
X274964271Y-181014054D01*
X274986793Y-181005996D01*
X275009997Y-181000184D01*
X275033658Y-180996674D01*
X275057550Y-180995500D01*
X275970050Y-180995500D01*
X275993942Y-180996674D01*
G37*
G36*
X275993942Y-179121674D02*
G01*
X276017603Y-179125184D01*
X276040807Y-179130996D01*
X276063329Y-179139054D01*
X276084953Y-179149282D01*
X276105470Y-179161579D01*
X276124683Y-179175829D01*
X276142407Y-179191893D01*
X276158471Y-179209617D01*
X276172721Y-179228830D01*
X276185018Y-179249347D01*
X276195246Y-179270971D01*
X276203304Y-179293493D01*
X276209116Y-179316697D01*
X276212626Y-179340358D01*
X276213800Y-179364250D01*
X276213800Y-179851750D01*
X276212626Y-179875642D01*
X276209116Y-179899303D01*
X276203304Y-179922507D01*
X276195246Y-179945029D01*
X276185018Y-179966653D01*
X276172721Y-179987170D01*
X276158471Y-180006383D01*
X276142407Y-180024107D01*
X276124683Y-180040171D01*
X276105470Y-180054421D01*
X276084953Y-180066718D01*
X276063329Y-180076946D01*
X276040807Y-180085004D01*
X276017603Y-180090816D01*
X275993942Y-180094326D01*
X275970050Y-180095500D01*
X275057550Y-180095500D01*
X275033658Y-180094326D01*
X275009997Y-180090816D01*
X274986793Y-180085004D01*
X274964271Y-180076946D01*
X274942647Y-180066718D01*
X274922130Y-180054421D01*
X274902917Y-180040171D01*
X274885193Y-180024107D01*
X274869129Y-180006383D01*
X274854879Y-179987170D01*
X274842582Y-179966653D01*
X274832354Y-179945029D01*
X274824296Y-179922507D01*
X274818484Y-179899303D01*
X274814974Y-179875642D01*
X274813800Y-179851750D01*
X274813800Y-179364250D01*
X274814974Y-179340358D01*
X274818484Y-179316697D01*
X274824296Y-179293493D01*
X274832354Y-179270971D01*
X274842582Y-179249347D01*
X274854879Y-179228830D01*
X274869129Y-179209617D01*
X274885193Y-179191893D01*
X274902917Y-179175829D01*
X274922130Y-179161579D01*
X274942647Y-179149282D01*
X274964271Y-179139054D01*
X274986793Y-179130996D01*
X275009997Y-179125184D01*
X275033658Y-179121674D01*
X275057550Y-179120500D01*
X275970050Y-179120500D01*
X275993942Y-179121674D01*
G37*
G36*
X111593542Y-104431774D02*
G01*
X111617203Y-104435284D01*
X111640407Y-104441096D01*
X111662929Y-104449154D01*
X111684553Y-104459382D01*
X111705070Y-104471679D01*
X111724283Y-104485929D01*
X111742007Y-104501993D01*
X111758071Y-104519717D01*
X111772321Y-104538930D01*
X111784618Y-104559447D01*
X111794846Y-104581071D01*
X111802904Y-104603593D01*
X111808716Y-104626797D01*
X111812226Y-104650458D01*
X111813400Y-104674350D01*
X111813400Y-105586850D01*
X111812226Y-105610742D01*
X111808716Y-105634403D01*
X111802904Y-105657607D01*
X111794846Y-105680129D01*
X111784618Y-105701753D01*
X111772321Y-105722270D01*
X111758071Y-105741483D01*
X111742007Y-105759207D01*
X111724283Y-105775271D01*
X111705070Y-105789521D01*
X111684553Y-105801818D01*
X111662929Y-105812046D01*
X111640407Y-105820104D01*
X111617203Y-105825916D01*
X111593542Y-105829426D01*
X111569650Y-105830600D01*
X111082150Y-105830600D01*
X111058258Y-105829426D01*
X111034597Y-105825916D01*
X111011393Y-105820104D01*
X110988871Y-105812046D01*
X110967247Y-105801818D01*
X110946730Y-105789521D01*
X110927517Y-105775271D01*
X110909793Y-105759207D01*
X110893729Y-105741483D01*
X110879479Y-105722270D01*
X110867182Y-105701753D01*
X110856954Y-105680129D01*
X110848896Y-105657607D01*
X110843084Y-105634403D01*
X110839574Y-105610742D01*
X110838400Y-105586850D01*
X110838400Y-104674350D01*
X110839574Y-104650458D01*
X110843084Y-104626797D01*
X110848896Y-104603593D01*
X110856954Y-104581071D01*
X110867182Y-104559447D01*
X110879479Y-104538930D01*
X110893729Y-104519717D01*
X110909793Y-104501993D01*
X110927517Y-104485929D01*
X110946730Y-104471679D01*
X110967247Y-104459382D01*
X110988871Y-104449154D01*
X111011393Y-104441096D01*
X111034597Y-104435284D01*
X111058258Y-104431774D01*
X111082150Y-104430600D01*
X111569650Y-104430600D01*
X111593542Y-104431774D01*
G37*
G36*
X109718542Y-104431774D02*
G01*
X109742203Y-104435284D01*
X109765407Y-104441096D01*
X109787929Y-104449154D01*
X109809553Y-104459382D01*
X109830070Y-104471679D01*
X109849283Y-104485929D01*
X109867007Y-104501993D01*
X109883071Y-104519717D01*
X109897321Y-104538930D01*
X109909618Y-104559447D01*
X109919846Y-104581071D01*
X109927904Y-104603593D01*
X109933716Y-104626797D01*
X109937226Y-104650458D01*
X109938400Y-104674350D01*
X109938400Y-105586850D01*
X109937226Y-105610742D01*
X109933716Y-105634403D01*
X109927904Y-105657607D01*
X109919846Y-105680129D01*
X109909618Y-105701753D01*
X109897321Y-105722270D01*
X109883071Y-105741483D01*
X109867007Y-105759207D01*
X109849283Y-105775271D01*
X109830070Y-105789521D01*
X109809553Y-105801818D01*
X109787929Y-105812046D01*
X109765407Y-105820104D01*
X109742203Y-105825916D01*
X109718542Y-105829426D01*
X109694650Y-105830600D01*
X109207150Y-105830600D01*
X109183258Y-105829426D01*
X109159597Y-105825916D01*
X109136393Y-105820104D01*
X109113871Y-105812046D01*
X109092247Y-105801818D01*
X109071730Y-105789521D01*
X109052517Y-105775271D01*
X109034793Y-105759207D01*
X109018729Y-105741483D01*
X109004479Y-105722270D01*
X108992182Y-105701753D01*
X108981954Y-105680129D01*
X108973896Y-105657607D01*
X108968084Y-105634403D01*
X108964574Y-105610742D01*
X108963400Y-105586850D01*
X108963400Y-104674350D01*
X108964574Y-104650458D01*
X108968084Y-104626797D01*
X108973896Y-104603593D01*
X108981954Y-104581071D01*
X108992182Y-104559447D01*
X109004479Y-104538930D01*
X109018729Y-104519717D01*
X109034793Y-104501993D01*
X109052517Y-104485929D01*
X109071730Y-104471679D01*
X109092247Y-104459382D01*
X109113871Y-104449154D01*
X109136393Y-104441096D01*
X109159597Y-104435284D01*
X109183258Y-104431774D01*
X109207150Y-104430600D01*
X109694650Y-104430600D01*
X109718542Y-104431774D01*
G37*
G36*
X331213542Y-99915274D02*
G01*
X331237203Y-99918784D01*
X331260407Y-99924596D01*
X331282929Y-99932654D01*
X331304553Y-99942882D01*
X331325070Y-99955179D01*
X331344283Y-99969429D01*
X331362007Y-99985493D01*
X331378071Y-100003217D01*
X331392321Y-100022430D01*
X331404618Y-100042947D01*
X331414846Y-100064571D01*
X331422904Y-100087093D01*
X331428716Y-100110297D01*
X331432226Y-100133958D01*
X331433400Y-100157850D01*
X331433400Y-100645350D01*
X331432226Y-100669242D01*
X331428716Y-100692903D01*
X331422904Y-100716107D01*
X331414846Y-100738629D01*
X331404618Y-100760253D01*
X331392321Y-100780770D01*
X331378071Y-100799983D01*
X331362007Y-100817707D01*
X331344283Y-100833771D01*
X331325070Y-100848021D01*
X331304553Y-100860318D01*
X331282929Y-100870546D01*
X331260407Y-100878604D01*
X331237203Y-100884416D01*
X331213542Y-100887926D01*
X331189650Y-100889100D01*
X330277150Y-100889100D01*
X330253258Y-100887926D01*
X330229597Y-100884416D01*
X330206393Y-100878604D01*
X330183871Y-100870546D01*
X330162247Y-100860318D01*
X330141730Y-100848021D01*
X330122517Y-100833771D01*
X330104793Y-100817707D01*
X330088729Y-100799983D01*
X330074479Y-100780770D01*
X330062182Y-100760253D01*
X330051954Y-100738629D01*
X330043896Y-100716107D01*
X330038084Y-100692903D01*
X330034574Y-100669242D01*
X330033400Y-100645350D01*
X330033400Y-100157850D01*
X330034574Y-100133958D01*
X330038084Y-100110297D01*
X330043896Y-100087093D01*
X330051954Y-100064571D01*
X330062182Y-100042947D01*
X330074479Y-100022430D01*
X330088729Y-100003217D01*
X330104793Y-99985493D01*
X330122517Y-99969429D01*
X330141730Y-99955179D01*
X330162247Y-99942882D01*
X330183871Y-99932654D01*
X330206393Y-99924596D01*
X330229597Y-99918784D01*
X330253258Y-99915274D01*
X330277150Y-99914100D01*
X331189650Y-99914100D01*
X331213542Y-99915274D01*
G37*
G36*
X331213542Y-98040274D02*
G01*
X331237203Y-98043784D01*
X331260407Y-98049596D01*
X331282929Y-98057654D01*
X331304553Y-98067882D01*
X331325070Y-98080179D01*
X331344283Y-98094429D01*
X331362007Y-98110493D01*
X331378071Y-98128217D01*
X331392321Y-98147430D01*
X331404618Y-98167947D01*
X331414846Y-98189571D01*
X331422904Y-98212093D01*
X331428716Y-98235297D01*
X331432226Y-98258958D01*
X331433400Y-98282850D01*
X331433400Y-98770350D01*
X331432226Y-98794242D01*
X331428716Y-98817903D01*
X331422904Y-98841107D01*
X331414846Y-98863629D01*
X331404618Y-98885253D01*
X331392321Y-98905770D01*
X331378071Y-98924983D01*
X331362007Y-98942707D01*
X331344283Y-98958771D01*
X331325070Y-98973021D01*
X331304553Y-98985318D01*
X331282929Y-98995546D01*
X331260407Y-99003604D01*
X331237203Y-99009416D01*
X331213542Y-99012926D01*
X331189650Y-99014100D01*
X330277150Y-99014100D01*
X330253258Y-99012926D01*
X330229597Y-99009416D01*
X330206393Y-99003604D01*
X330183871Y-98995546D01*
X330162247Y-98985318D01*
X330141730Y-98973021D01*
X330122517Y-98958771D01*
X330104793Y-98942707D01*
X330088729Y-98924983D01*
X330074479Y-98905770D01*
X330062182Y-98885253D01*
X330051954Y-98863629D01*
X330043896Y-98841107D01*
X330038084Y-98817903D01*
X330034574Y-98794242D01*
X330033400Y-98770350D01*
X330033400Y-98282850D01*
X330034574Y-98258958D01*
X330038084Y-98235297D01*
X330043896Y-98212093D01*
X330051954Y-98189571D01*
X330062182Y-98167947D01*
X330074479Y-98147430D01*
X330088729Y-98128217D01*
X330104793Y-98110493D01*
X330122517Y-98094429D01*
X330141730Y-98080179D01*
X330162247Y-98067882D01*
X330183871Y-98057654D01*
X330206393Y-98049596D01*
X330229597Y-98043784D01*
X330253258Y-98040274D01*
X330277150Y-98039100D01*
X331189650Y-98039100D01*
X331213542Y-98040274D01*
G37*
G36*
X86281342Y-182012674D02*
G01*
X86305003Y-182016184D01*
X86328207Y-182021996D01*
X86350729Y-182030054D01*
X86372353Y-182040282D01*
X86392870Y-182052579D01*
X86412083Y-182066829D01*
X86429807Y-182082893D01*
X86445871Y-182100617D01*
X86460121Y-182119830D01*
X86472418Y-182140347D01*
X86482646Y-182161971D01*
X86490704Y-182184493D01*
X86496516Y-182207697D01*
X86500026Y-182231358D01*
X86501200Y-182255250D01*
X86501200Y-182742750D01*
X86500026Y-182766642D01*
X86496516Y-182790303D01*
X86490704Y-182813507D01*
X86482646Y-182836029D01*
X86472418Y-182857653D01*
X86460121Y-182878170D01*
X86445871Y-182897383D01*
X86429807Y-182915107D01*
X86412083Y-182931171D01*
X86392870Y-182945421D01*
X86372353Y-182957718D01*
X86350729Y-182967946D01*
X86328207Y-182976004D01*
X86305003Y-182981816D01*
X86281342Y-182985326D01*
X86257450Y-182986500D01*
X85344950Y-182986500D01*
X85321058Y-182985326D01*
X85297397Y-182981816D01*
X85274193Y-182976004D01*
X85251671Y-182967946D01*
X85230047Y-182957718D01*
X85209530Y-182945421D01*
X85190317Y-182931171D01*
X85172593Y-182915107D01*
X85156529Y-182897383D01*
X85142279Y-182878170D01*
X85129982Y-182857653D01*
X85119754Y-182836029D01*
X85111696Y-182813507D01*
X85105884Y-182790303D01*
X85102374Y-182766642D01*
X85101200Y-182742750D01*
X85101200Y-182255250D01*
X85102374Y-182231358D01*
X85105884Y-182207697D01*
X85111696Y-182184493D01*
X85119754Y-182161971D01*
X85129982Y-182140347D01*
X85142279Y-182119830D01*
X85156529Y-182100617D01*
X85172593Y-182082893D01*
X85190317Y-182066829D01*
X85209530Y-182052579D01*
X85230047Y-182040282D01*
X85251671Y-182030054D01*
X85274193Y-182021996D01*
X85297397Y-182016184D01*
X85321058Y-182012674D01*
X85344950Y-182011500D01*
X86257450Y-182011500D01*
X86281342Y-182012674D01*
G37*
G36*
X86281342Y-180137674D02*
G01*
X86305003Y-180141184D01*
X86328207Y-180146996D01*
X86350729Y-180155054D01*
X86372353Y-180165282D01*
X86392870Y-180177579D01*
X86412083Y-180191829D01*
X86429807Y-180207893D01*
X86445871Y-180225617D01*
X86460121Y-180244830D01*
X86472418Y-180265347D01*
X86482646Y-180286971D01*
X86490704Y-180309493D01*
X86496516Y-180332697D01*
X86500026Y-180356358D01*
X86501200Y-180380250D01*
X86501200Y-180867750D01*
X86500026Y-180891642D01*
X86496516Y-180915303D01*
X86490704Y-180938507D01*
X86482646Y-180961029D01*
X86472418Y-180982653D01*
X86460121Y-181003170D01*
X86445871Y-181022383D01*
X86429807Y-181040107D01*
X86412083Y-181056171D01*
X86392870Y-181070421D01*
X86372353Y-181082718D01*
X86350729Y-181092946D01*
X86328207Y-181101004D01*
X86305003Y-181106816D01*
X86281342Y-181110326D01*
X86257450Y-181111500D01*
X85344950Y-181111500D01*
X85321058Y-181110326D01*
X85297397Y-181106816D01*
X85274193Y-181101004D01*
X85251671Y-181092946D01*
X85230047Y-181082718D01*
X85209530Y-181070421D01*
X85190317Y-181056171D01*
X85172593Y-181040107D01*
X85156529Y-181022383D01*
X85142279Y-181003170D01*
X85129982Y-180982653D01*
X85119754Y-180961029D01*
X85111696Y-180938507D01*
X85105884Y-180915303D01*
X85102374Y-180891642D01*
X85101200Y-180867750D01*
X85101200Y-180380250D01*
X85102374Y-180356358D01*
X85105884Y-180332697D01*
X85111696Y-180309493D01*
X85119754Y-180286971D01*
X85129982Y-180265347D01*
X85142279Y-180244830D01*
X85156529Y-180225617D01*
X85172593Y-180207893D01*
X85190317Y-180191829D01*
X85209530Y-180177579D01*
X85230047Y-180165282D01*
X85251671Y-180155054D01*
X85274193Y-180146996D01*
X85297397Y-180141184D01*
X85321058Y-180137674D01*
X85344950Y-180136500D01*
X86257450Y-180136500D01*
X86281342Y-180137674D01*
G37*
G36*
X206397942Y-180666474D02*
G01*
X206421603Y-180669984D01*
X206444807Y-180675796D01*
X206467329Y-180683854D01*
X206488953Y-180694082D01*
X206509470Y-180706379D01*
X206528683Y-180720629D01*
X206546407Y-180736693D01*
X206562471Y-180754417D01*
X206576721Y-180773630D01*
X206589018Y-180794147D01*
X206599246Y-180815771D01*
X206607304Y-180838293D01*
X206613116Y-180861497D01*
X206616626Y-180885158D01*
X206617800Y-180909050D01*
X206617800Y-181396550D01*
X206616626Y-181420442D01*
X206613116Y-181444103D01*
X206607304Y-181467307D01*
X206599246Y-181489829D01*
X206589018Y-181511453D01*
X206576721Y-181531970D01*
X206562471Y-181551183D01*
X206546407Y-181568907D01*
X206528683Y-181584971D01*
X206509470Y-181599221D01*
X206488953Y-181611518D01*
X206467329Y-181621746D01*
X206444807Y-181629804D01*
X206421603Y-181635616D01*
X206397942Y-181639126D01*
X206374050Y-181640300D01*
X205461550Y-181640300D01*
X205437658Y-181639126D01*
X205413997Y-181635616D01*
X205390793Y-181629804D01*
X205368271Y-181621746D01*
X205346647Y-181611518D01*
X205326130Y-181599221D01*
X205306917Y-181584971D01*
X205289193Y-181568907D01*
X205273129Y-181551183D01*
X205258879Y-181531970D01*
X205246582Y-181511453D01*
X205236354Y-181489829D01*
X205228296Y-181467307D01*
X205222484Y-181444103D01*
X205218974Y-181420442D01*
X205217800Y-181396550D01*
X205217800Y-180909050D01*
X205218974Y-180885158D01*
X205222484Y-180861497D01*
X205228296Y-180838293D01*
X205236354Y-180815771D01*
X205246582Y-180794147D01*
X205258879Y-180773630D01*
X205273129Y-180754417D01*
X205289193Y-180736693D01*
X205306917Y-180720629D01*
X205326130Y-180706379D01*
X205346647Y-180694082D01*
X205368271Y-180683854D01*
X205390793Y-180675796D01*
X205413997Y-180669984D01*
X205437658Y-180666474D01*
X205461550Y-180665300D01*
X206374050Y-180665300D01*
X206397942Y-180666474D01*
G37*
G36*
X206397942Y-178791474D02*
G01*
X206421603Y-178794984D01*
X206444807Y-178800796D01*
X206467329Y-178808854D01*
X206488953Y-178819082D01*
X206509470Y-178831379D01*
X206528683Y-178845629D01*
X206546407Y-178861693D01*
X206562471Y-178879417D01*
X206576721Y-178898630D01*
X206589018Y-178919147D01*
X206599246Y-178940771D01*
X206607304Y-178963293D01*
X206613116Y-178986497D01*
X206616626Y-179010158D01*
X206617800Y-179034050D01*
X206617800Y-179521550D01*
X206616626Y-179545442D01*
X206613116Y-179569103D01*
X206607304Y-179592307D01*
X206599246Y-179614829D01*
X206589018Y-179636453D01*
X206576721Y-179656970D01*
X206562471Y-179676183D01*
X206546407Y-179693907D01*
X206528683Y-179709971D01*
X206509470Y-179724221D01*
X206488953Y-179736518D01*
X206467329Y-179746746D01*
X206444807Y-179754804D01*
X206421603Y-179760616D01*
X206397942Y-179764126D01*
X206374050Y-179765300D01*
X205461550Y-179765300D01*
X205437658Y-179764126D01*
X205413997Y-179760616D01*
X205390793Y-179754804D01*
X205368271Y-179746746D01*
X205346647Y-179736518D01*
X205326130Y-179724221D01*
X205306917Y-179709971D01*
X205289193Y-179693907D01*
X205273129Y-179676183D01*
X205258879Y-179656970D01*
X205246582Y-179636453D01*
X205236354Y-179614829D01*
X205228296Y-179592307D01*
X205222484Y-179569103D01*
X205218974Y-179545442D01*
X205217800Y-179521550D01*
X205217800Y-179034050D01*
X205218974Y-179010158D01*
X205222484Y-178986497D01*
X205228296Y-178963293D01*
X205236354Y-178940771D01*
X205246582Y-178919147D01*
X205258879Y-178898630D01*
X205273129Y-178879417D01*
X205289193Y-178861693D01*
X205306917Y-178845629D01*
X205326130Y-178831379D01*
X205346647Y-178819082D01*
X205368271Y-178808854D01*
X205390793Y-178800796D01*
X205413997Y-178794984D01*
X205437658Y-178791474D01*
X205461550Y-178790300D01*
X206374050Y-178790300D01*
X206397942Y-178791474D01*
G37*
G36*
X135049342Y-180895074D02*
G01*
X135073003Y-180898584D01*
X135096207Y-180904396D01*
X135118729Y-180912454D01*
X135140353Y-180922682D01*
X135160870Y-180934979D01*
X135180083Y-180949229D01*
X135197807Y-180965293D01*
X135213871Y-180983017D01*
X135228121Y-181002230D01*
X135240418Y-181022747D01*
X135250646Y-181044371D01*
X135258704Y-181066893D01*
X135264516Y-181090097D01*
X135268026Y-181113758D01*
X135269200Y-181137650D01*
X135269200Y-181625150D01*
X135268026Y-181649042D01*
X135264516Y-181672703D01*
X135258704Y-181695907D01*
X135250646Y-181718429D01*
X135240418Y-181740053D01*
X135228121Y-181760570D01*
X135213871Y-181779783D01*
X135197807Y-181797507D01*
X135180083Y-181813571D01*
X135160870Y-181827821D01*
X135140353Y-181840118D01*
X135118729Y-181850346D01*
X135096207Y-181858404D01*
X135073003Y-181864216D01*
X135049342Y-181867726D01*
X135025450Y-181868900D01*
X134112950Y-181868900D01*
X134089058Y-181867726D01*
X134065397Y-181864216D01*
X134042193Y-181858404D01*
X134019671Y-181850346D01*
X133998047Y-181840118D01*
X133977530Y-181827821D01*
X133958317Y-181813571D01*
X133940593Y-181797507D01*
X133924529Y-181779783D01*
X133910279Y-181760570D01*
X133897982Y-181740053D01*
X133887754Y-181718429D01*
X133879696Y-181695907D01*
X133873884Y-181672703D01*
X133870374Y-181649042D01*
X133869200Y-181625150D01*
X133869200Y-181137650D01*
X133870374Y-181113758D01*
X133873884Y-181090097D01*
X133879696Y-181066893D01*
X133887754Y-181044371D01*
X133897982Y-181022747D01*
X133910279Y-181002230D01*
X133924529Y-180983017D01*
X133940593Y-180965293D01*
X133958317Y-180949229D01*
X133977530Y-180934979D01*
X133998047Y-180922682D01*
X134019671Y-180912454D01*
X134042193Y-180904396D01*
X134065397Y-180898584D01*
X134089058Y-180895074D01*
X134112950Y-180893900D01*
X135025450Y-180893900D01*
X135049342Y-180895074D01*
G37*
G36*
X135049342Y-179020074D02*
G01*
X135073003Y-179023584D01*
X135096207Y-179029396D01*
X135118729Y-179037454D01*
X135140353Y-179047682D01*
X135160870Y-179059979D01*
X135180083Y-179074229D01*
X135197807Y-179090293D01*
X135213871Y-179108017D01*
X135228121Y-179127230D01*
X135240418Y-179147747D01*
X135250646Y-179169371D01*
X135258704Y-179191893D01*
X135264516Y-179215097D01*
X135268026Y-179238758D01*
X135269200Y-179262650D01*
X135269200Y-179750150D01*
X135268026Y-179774042D01*
X135264516Y-179797703D01*
X135258704Y-179820907D01*
X135250646Y-179843429D01*
X135240418Y-179865053D01*
X135228121Y-179885570D01*
X135213871Y-179904783D01*
X135197807Y-179922507D01*
X135180083Y-179938571D01*
X135160870Y-179952821D01*
X135140353Y-179965118D01*
X135118729Y-179975346D01*
X135096207Y-179983404D01*
X135073003Y-179989216D01*
X135049342Y-179992726D01*
X135025450Y-179993900D01*
X134112950Y-179993900D01*
X134089058Y-179992726D01*
X134065397Y-179989216D01*
X134042193Y-179983404D01*
X134019671Y-179975346D01*
X133998047Y-179965118D01*
X133977530Y-179952821D01*
X133958317Y-179938571D01*
X133940593Y-179922507D01*
X133924529Y-179904783D01*
X133910279Y-179885570D01*
X133897982Y-179865053D01*
X133887754Y-179843429D01*
X133879696Y-179820907D01*
X133873884Y-179797703D01*
X133870374Y-179774042D01*
X133869200Y-179750150D01*
X133869200Y-179262650D01*
X133870374Y-179238758D01*
X133873884Y-179215097D01*
X133879696Y-179191893D01*
X133887754Y-179169371D01*
X133897982Y-179147747D01*
X133910279Y-179127230D01*
X133924529Y-179108017D01*
X133940593Y-179090293D01*
X133958317Y-179074229D01*
X133977530Y-179059979D01*
X133998047Y-179047682D01*
X134019671Y-179037454D01*
X134042193Y-179029396D01*
X134065397Y-179023584D01*
X134089058Y-179020074D01*
X134112950Y-179018900D01*
X135025450Y-179018900D01*
X135049342Y-179020074D01*
G37*
G36*
X71955742Y-165631974D02*
G01*
X71979403Y-165635484D01*
X72002607Y-165641296D01*
X72025129Y-165649354D01*
X72046753Y-165659582D01*
X72067270Y-165671879D01*
X72086483Y-165686129D01*
X72104207Y-165702193D01*
X72120271Y-165719917D01*
X72134521Y-165739130D01*
X72146818Y-165759647D01*
X72157046Y-165781271D01*
X72165104Y-165803793D01*
X72170916Y-165826997D01*
X72174426Y-165850658D01*
X72175600Y-165874550D01*
X72175600Y-166362050D01*
X72174426Y-166385942D01*
X72170916Y-166409603D01*
X72165104Y-166432807D01*
X72157046Y-166455329D01*
X72146818Y-166476953D01*
X72134521Y-166497470D01*
X72120271Y-166516683D01*
X72104207Y-166534407D01*
X72086483Y-166550471D01*
X72067270Y-166564721D01*
X72046753Y-166577018D01*
X72025129Y-166587246D01*
X72002607Y-166595304D01*
X71979403Y-166601116D01*
X71955742Y-166604626D01*
X71931850Y-166605800D01*
X71019350Y-166605800D01*
X70995458Y-166604626D01*
X70971797Y-166601116D01*
X70948593Y-166595304D01*
X70926071Y-166587246D01*
X70904447Y-166577018D01*
X70883930Y-166564721D01*
X70864717Y-166550471D01*
X70846993Y-166534407D01*
X70830929Y-166516683D01*
X70816679Y-166497470D01*
X70804382Y-166476953D01*
X70794154Y-166455329D01*
X70786096Y-166432807D01*
X70780284Y-166409603D01*
X70776774Y-166385942D01*
X70775600Y-166362050D01*
X70775600Y-165874550D01*
X70776774Y-165850658D01*
X70780284Y-165826997D01*
X70786096Y-165803793D01*
X70794154Y-165781271D01*
X70804382Y-165759647D01*
X70816679Y-165739130D01*
X70830929Y-165719917D01*
X70846993Y-165702193D01*
X70864717Y-165686129D01*
X70883930Y-165671879D01*
X70904447Y-165659582D01*
X70926071Y-165649354D01*
X70948593Y-165641296D01*
X70971797Y-165635484D01*
X70995458Y-165631974D01*
X71019350Y-165630800D01*
X71931850Y-165630800D01*
X71955742Y-165631974D01*
G37*
G36*
X71955742Y-167506974D02*
G01*
X71979403Y-167510484D01*
X72002607Y-167516296D01*
X72025129Y-167524354D01*
X72046753Y-167534582D01*
X72067270Y-167546879D01*
X72086483Y-167561129D01*
X72104207Y-167577193D01*
X72120271Y-167594917D01*
X72134521Y-167614130D01*
X72146818Y-167634647D01*
X72157046Y-167656271D01*
X72165104Y-167678793D01*
X72170916Y-167701997D01*
X72174426Y-167725658D01*
X72175600Y-167749550D01*
X72175600Y-168237050D01*
X72174426Y-168260942D01*
X72170916Y-168284603D01*
X72165104Y-168307807D01*
X72157046Y-168330329D01*
X72146818Y-168351953D01*
X72134521Y-168372470D01*
X72120271Y-168391683D01*
X72104207Y-168409407D01*
X72086483Y-168425471D01*
X72067270Y-168439721D01*
X72046753Y-168452018D01*
X72025129Y-168462246D01*
X72002607Y-168470304D01*
X71979403Y-168476116D01*
X71955742Y-168479626D01*
X71931850Y-168480800D01*
X71019350Y-168480800D01*
X70995458Y-168479626D01*
X70971797Y-168476116D01*
X70948593Y-168470304D01*
X70926071Y-168462246D01*
X70904447Y-168452018D01*
X70883930Y-168439721D01*
X70864717Y-168425471D01*
X70846993Y-168409407D01*
X70830929Y-168391683D01*
X70816679Y-168372470D01*
X70804382Y-168351953D01*
X70794154Y-168330329D01*
X70786096Y-168307807D01*
X70780284Y-168284603D01*
X70776774Y-168260942D01*
X70775600Y-168237050D01*
X70775600Y-167749550D01*
X70776774Y-167725658D01*
X70780284Y-167701997D01*
X70786096Y-167678793D01*
X70794154Y-167656271D01*
X70804382Y-167634647D01*
X70816679Y-167614130D01*
X70830929Y-167594917D01*
X70846993Y-167577193D01*
X70864717Y-167561129D01*
X70883930Y-167546879D01*
X70904447Y-167534582D01*
X70926071Y-167524354D01*
X70948593Y-167516296D01*
X70971797Y-167510484D01*
X70995458Y-167506974D01*
X71019350Y-167505800D01*
X71931850Y-167505800D01*
X71955742Y-167506974D01*
G37*
G36*
X268923442Y-107632174D02*
G01*
X268947103Y-107635684D01*
X268970307Y-107641496D01*
X268992829Y-107649554D01*
X269014453Y-107659782D01*
X269034970Y-107672079D01*
X269054183Y-107686329D01*
X269071907Y-107702393D01*
X269087971Y-107720117D01*
X269102221Y-107739330D01*
X269114518Y-107759847D01*
X269124746Y-107781471D01*
X269132804Y-107803993D01*
X269138616Y-107827197D01*
X269142126Y-107850858D01*
X269143300Y-107874750D01*
X269143300Y-108787250D01*
X269142126Y-108811142D01*
X269138616Y-108834803D01*
X269132804Y-108858007D01*
X269124746Y-108880529D01*
X269114518Y-108902153D01*
X269102221Y-108922670D01*
X269087971Y-108941883D01*
X269071907Y-108959607D01*
X269054183Y-108975671D01*
X269034970Y-108989921D01*
X269014453Y-109002218D01*
X268992829Y-109012446D01*
X268970307Y-109020504D01*
X268947103Y-109026316D01*
X268923442Y-109029826D01*
X268899550Y-109031000D01*
X268412050Y-109031000D01*
X268388158Y-109029826D01*
X268364497Y-109026316D01*
X268341293Y-109020504D01*
X268318771Y-109012446D01*
X268297147Y-109002218D01*
X268276630Y-108989921D01*
X268257417Y-108975671D01*
X268239693Y-108959607D01*
X268223629Y-108941883D01*
X268209379Y-108922670D01*
X268197082Y-108902153D01*
X268186854Y-108880529D01*
X268178796Y-108858007D01*
X268172984Y-108834803D01*
X268169474Y-108811142D01*
X268168300Y-108787250D01*
X268168300Y-107874750D01*
X268169474Y-107850858D01*
X268172984Y-107827197D01*
X268178796Y-107803993D01*
X268186854Y-107781471D01*
X268197082Y-107759847D01*
X268209379Y-107739330D01*
X268223629Y-107720117D01*
X268239693Y-107702393D01*
X268257417Y-107686329D01*
X268276630Y-107672079D01*
X268297147Y-107659782D01*
X268318771Y-107649554D01*
X268341293Y-107641496D01*
X268364497Y-107635684D01*
X268388158Y-107632174D01*
X268412050Y-107631000D01*
X268899550Y-107631000D01*
X268923442Y-107632174D01*
G37*
G36*
X267048442Y-107632174D02*
G01*
X267072103Y-107635684D01*
X267095307Y-107641496D01*
X267117829Y-107649554D01*
X267139453Y-107659782D01*
X267159970Y-107672079D01*
X267179183Y-107686329D01*
X267196907Y-107702393D01*
X267212971Y-107720117D01*
X267227221Y-107739330D01*
X267239518Y-107759847D01*
X267249746Y-107781471D01*
X267257804Y-107803993D01*
X267263616Y-107827197D01*
X267267126Y-107850858D01*
X267268300Y-107874750D01*
X267268300Y-108787250D01*
X267267126Y-108811142D01*
X267263616Y-108834803D01*
X267257804Y-108858007D01*
X267249746Y-108880529D01*
X267239518Y-108902153D01*
X267227221Y-108922670D01*
X267212971Y-108941883D01*
X267196907Y-108959607D01*
X267179183Y-108975671D01*
X267159970Y-108989921D01*
X267139453Y-109002218D01*
X267117829Y-109012446D01*
X267095307Y-109020504D01*
X267072103Y-109026316D01*
X267048442Y-109029826D01*
X267024550Y-109031000D01*
X266537050Y-109031000D01*
X266513158Y-109029826D01*
X266489497Y-109026316D01*
X266466293Y-109020504D01*
X266443771Y-109012446D01*
X266422147Y-109002218D01*
X266401630Y-108989921D01*
X266382417Y-108975671D01*
X266364693Y-108959607D01*
X266348629Y-108941883D01*
X266334379Y-108922670D01*
X266322082Y-108902153D01*
X266311854Y-108880529D01*
X266303796Y-108858007D01*
X266297984Y-108834803D01*
X266294474Y-108811142D01*
X266293300Y-108787250D01*
X266293300Y-107874750D01*
X266294474Y-107850858D01*
X266297984Y-107827197D01*
X266303796Y-107803993D01*
X266311854Y-107781471D01*
X266322082Y-107759847D01*
X266334379Y-107739330D01*
X266348629Y-107720117D01*
X266364693Y-107702393D01*
X266382417Y-107686329D01*
X266401630Y-107672079D01*
X266422147Y-107659782D01*
X266443771Y-107649554D01*
X266466293Y-107641496D01*
X266489497Y-107635684D01*
X266513158Y-107632174D01*
X266537050Y-107631000D01*
X267024550Y-107631000D01*
X267048442Y-107632174D01*
G37*
G36*
X70914342Y-114702674D02*
G01*
X70938003Y-114706184D01*
X70961207Y-114711996D01*
X70983729Y-114720054D01*
X71005353Y-114730282D01*
X71025870Y-114742579D01*
X71045083Y-114756829D01*
X71062807Y-114772893D01*
X71078871Y-114790617D01*
X71093121Y-114809830D01*
X71105418Y-114830347D01*
X71115646Y-114851971D01*
X71123704Y-114874493D01*
X71129516Y-114897697D01*
X71133026Y-114921358D01*
X71134200Y-114945250D01*
X71134200Y-115432750D01*
X71133026Y-115456642D01*
X71129516Y-115480303D01*
X71123704Y-115503507D01*
X71115646Y-115526029D01*
X71105418Y-115547653D01*
X71093121Y-115568170D01*
X71078871Y-115587383D01*
X71062807Y-115605107D01*
X71045083Y-115621171D01*
X71025870Y-115635421D01*
X71005353Y-115647718D01*
X70983729Y-115657946D01*
X70961207Y-115666004D01*
X70938003Y-115671816D01*
X70914342Y-115675326D01*
X70890450Y-115676500D01*
X69977950Y-115676500D01*
X69954058Y-115675326D01*
X69930397Y-115671816D01*
X69907193Y-115666004D01*
X69884671Y-115657946D01*
X69863047Y-115647718D01*
X69842530Y-115635421D01*
X69823317Y-115621171D01*
X69805593Y-115605107D01*
X69789529Y-115587383D01*
X69775279Y-115568170D01*
X69762982Y-115547653D01*
X69752754Y-115526029D01*
X69744696Y-115503507D01*
X69738884Y-115480303D01*
X69735374Y-115456642D01*
X69734200Y-115432750D01*
X69734200Y-114945250D01*
X69735374Y-114921358D01*
X69738884Y-114897697D01*
X69744696Y-114874493D01*
X69752754Y-114851971D01*
X69762982Y-114830347D01*
X69775279Y-114809830D01*
X69789529Y-114790617D01*
X69805593Y-114772893D01*
X69823317Y-114756829D01*
X69842530Y-114742579D01*
X69863047Y-114730282D01*
X69884671Y-114720054D01*
X69907193Y-114711996D01*
X69930397Y-114706184D01*
X69954058Y-114702674D01*
X69977950Y-114701500D01*
X70890450Y-114701500D01*
X70914342Y-114702674D01*
G37*
G36*
X70914342Y-116577674D02*
G01*
X70938003Y-116581184D01*
X70961207Y-116586996D01*
X70983729Y-116595054D01*
X71005353Y-116605282D01*
X71025870Y-116617579D01*
X71045083Y-116631829D01*
X71062807Y-116647893D01*
X71078871Y-116665617D01*
X71093121Y-116684830D01*
X71105418Y-116705347D01*
X71115646Y-116726971D01*
X71123704Y-116749493D01*
X71129516Y-116772697D01*
X71133026Y-116796358D01*
X71134200Y-116820250D01*
X71134200Y-117307750D01*
X71133026Y-117331642D01*
X71129516Y-117355303D01*
X71123704Y-117378507D01*
X71115646Y-117401029D01*
X71105418Y-117422653D01*
X71093121Y-117443170D01*
X71078871Y-117462383D01*
X71062807Y-117480107D01*
X71045083Y-117496171D01*
X71025870Y-117510421D01*
X71005353Y-117522718D01*
X70983729Y-117532946D01*
X70961207Y-117541004D01*
X70938003Y-117546816D01*
X70914342Y-117550326D01*
X70890450Y-117551500D01*
X69977950Y-117551500D01*
X69954058Y-117550326D01*
X69930397Y-117546816D01*
X69907193Y-117541004D01*
X69884671Y-117532946D01*
X69863047Y-117522718D01*
X69842530Y-117510421D01*
X69823317Y-117496171D01*
X69805593Y-117480107D01*
X69789529Y-117462383D01*
X69775279Y-117443170D01*
X69762982Y-117422653D01*
X69752754Y-117401029D01*
X69744696Y-117378507D01*
X69738884Y-117355303D01*
X69735374Y-117331642D01*
X69734200Y-117307750D01*
X69734200Y-116820250D01*
X69735374Y-116796358D01*
X69738884Y-116772697D01*
X69744696Y-116749493D01*
X69752754Y-116726971D01*
X69762982Y-116705347D01*
X69775279Y-116684830D01*
X69789529Y-116665617D01*
X69805593Y-116647893D01*
X69823317Y-116631829D01*
X69842530Y-116617579D01*
X69863047Y-116605282D01*
X69884671Y-116595054D01*
X69907193Y-116586996D01*
X69930397Y-116581184D01*
X69954058Y-116577674D01*
X69977950Y-116576500D01*
X70890450Y-116576500D01*
X70914342Y-116577674D01*
G37*
G36*
X169812642Y-105041374D02*
G01*
X169836303Y-105044884D01*
X169859507Y-105050696D01*
X169882029Y-105058754D01*
X169903653Y-105068982D01*
X169924170Y-105081279D01*
X169943383Y-105095529D01*
X169961107Y-105111593D01*
X169977171Y-105129317D01*
X169991421Y-105148530D01*
X170003718Y-105169047D01*
X170013946Y-105190671D01*
X170022004Y-105213193D01*
X170027816Y-105236397D01*
X170031326Y-105260058D01*
X170032500Y-105283950D01*
X170032500Y-106196450D01*
X170031326Y-106220342D01*
X170027816Y-106244003D01*
X170022004Y-106267207D01*
X170013946Y-106289729D01*
X170003718Y-106311353D01*
X169991421Y-106331870D01*
X169977171Y-106351083D01*
X169961107Y-106368807D01*
X169943383Y-106384871D01*
X169924170Y-106399121D01*
X169903653Y-106411418D01*
X169882029Y-106421646D01*
X169859507Y-106429704D01*
X169836303Y-106435516D01*
X169812642Y-106439026D01*
X169788750Y-106440200D01*
X169301250Y-106440200D01*
X169277358Y-106439026D01*
X169253697Y-106435516D01*
X169230493Y-106429704D01*
X169207971Y-106421646D01*
X169186347Y-106411418D01*
X169165830Y-106399121D01*
X169146617Y-106384871D01*
X169128893Y-106368807D01*
X169112829Y-106351083D01*
X169098579Y-106331870D01*
X169086282Y-106311353D01*
X169076054Y-106289729D01*
X169067996Y-106267207D01*
X169062184Y-106244003D01*
X169058674Y-106220342D01*
X169057500Y-106196450D01*
X169057500Y-105283950D01*
X169058674Y-105260058D01*
X169062184Y-105236397D01*
X169067996Y-105213193D01*
X169076054Y-105190671D01*
X169086282Y-105169047D01*
X169098579Y-105148530D01*
X169112829Y-105129317D01*
X169128893Y-105111593D01*
X169146617Y-105095529D01*
X169165830Y-105081279D01*
X169186347Y-105068982D01*
X169207971Y-105058754D01*
X169230493Y-105050696D01*
X169253697Y-105044884D01*
X169277358Y-105041374D01*
X169301250Y-105040200D01*
X169788750Y-105040200D01*
X169812642Y-105041374D01*
G37*
G36*
X167937642Y-105041374D02*
G01*
X167961303Y-105044884D01*
X167984507Y-105050696D01*
X168007029Y-105058754D01*
X168028653Y-105068982D01*
X168049170Y-105081279D01*
X168068383Y-105095529D01*
X168086107Y-105111593D01*
X168102171Y-105129317D01*
X168116421Y-105148530D01*
X168128718Y-105169047D01*
X168138946Y-105190671D01*
X168147004Y-105213193D01*
X168152816Y-105236397D01*
X168156326Y-105260058D01*
X168157500Y-105283950D01*
X168157500Y-106196450D01*
X168156326Y-106220342D01*
X168152816Y-106244003D01*
X168147004Y-106267207D01*
X168138946Y-106289729D01*
X168128718Y-106311353D01*
X168116421Y-106331870D01*
X168102171Y-106351083D01*
X168086107Y-106368807D01*
X168068383Y-106384871D01*
X168049170Y-106399121D01*
X168028653Y-106411418D01*
X168007029Y-106421646D01*
X167984507Y-106429704D01*
X167961303Y-106435516D01*
X167937642Y-106439026D01*
X167913750Y-106440200D01*
X167426250Y-106440200D01*
X167402358Y-106439026D01*
X167378697Y-106435516D01*
X167355493Y-106429704D01*
X167332971Y-106421646D01*
X167311347Y-106411418D01*
X167290830Y-106399121D01*
X167271617Y-106384871D01*
X167253893Y-106368807D01*
X167237829Y-106351083D01*
X167223579Y-106331870D01*
X167211282Y-106311353D01*
X167201054Y-106289729D01*
X167192996Y-106267207D01*
X167187184Y-106244003D01*
X167183674Y-106220342D01*
X167182500Y-106196450D01*
X167182500Y-105283950D01*
X167183674Y-105260058D01*
X167187184Y-105236397D01*
X167192996Y-105213193D01*
X167201054Y-105190671D01*
X167211282Y-105169047D01*
X167223579Y-105148530D01*
X167237829Y-105129317D01*
X167253893Y-105111593D01*
X167271617Y-105095529D01*
X167290830Y-105081279D01*
X167311347Y-105068982D01*
X167332971Y-105058754D01*
X167355493Y-105050696D01*
X167378697Y-105044884D01*
X167402358Y-105041374D01*
X167426250Y-105040200D01*
X167913750Y-105040200D01*
X167937642Y-105041374D01*
G37*
G36*
X351863742Y-181276074D02*
G01*
X351887403Y-181279584D01*
X351910607Y-181285396D01*
X351933129Y-181293454D01*
X351954753Y-181303682D01*
X351975270Y-181315979D01*
X351994483Y-181330229D01*
X352012207Y-181346293D01*
X352028271Y-181364017D01*
X352042521Y-181383230D01*
X352054818Y-181403747D01*
X352065046Y-181425371D01*
X352073104Y-181447893D01*
X352078916Y-181471097D01*
X352082426Y-181494758D01*
X352083600Y-181518650D01*
X352083600Y-182006150D01*
X352082426Y-182030042D01*
X352078916Y-182053703D01*
X352073104Y-182076907D01*
X352065046Y-182099429D01*
X352054818Y-182121053D01*
X352042521Y-182141570D01*
X352028271Y-182160783D01*
X352012207Y-182178507D01*
X351994483Y-182194571D01*
X351975270Y-182208821D01*
X351954753Y-182221118D01*
X351933129Y-182231346D01*
X351910607Y-182239404D01*
X351887403Y-182245216D01*
X351863742Y-182248726D01*
X351839850Y-182249900D01*
X350927350Y-182249900D01*
X350903458Y-182248726D01*
X350879797Y-182245216D01*
X350856593Y-182239404D01*
X350834071Y-182231346D01*
X350812447Y-182221118D01*
X350791930Y-182208821D01*
X350772717Y-182194571D01*
X350754993Y-182178507D01*
X350738929Y-182160783D01*
X350724679Y-182141570D01*
X350712382Y-182121053D01*
X350702154Y-182099429D01*
X350694096Y-182076907D01*
X350688284Y-182053703D01*
X350684774Y-182030042D01*
X350683600Y-182006150D01*
X350683600Y-181518650D01*
X350684774Y-181494758D01*
X350688284Y-181471097D01*
X350694096Y-181447893D01*
X350702154Y-181425371D01*
X350712382Y-181403747D01*
X350724679Y-181383230D01*
X350738929Y-181364017D01*
X350754993Y-181346293D01*
X350772717Y-181330229D01*
X350791930Y-181315979D01*
X350812447Y-181303682D01*
X350834071Y-181293454D01*
X350856593Y-181285396D01*
X350879797Y-181279584D01*
X350903458Y-181276074D01*
X350927350Y-181274900D01*
X351839850Y-181274900D01*
X351863742Y-181276074D01*
G37*
G36*
X351863742Y-179401074D02*
G01*
X351887403Y-179404584D01*
X351910607Y-179410396D01*
X351933129Y-179418454D01*
X351954753Y-179428682D01*
X351975270Y-179440979D01*
X351994483Y-179455229D01*
X352012207Y-179471293D01*
X352028271Y-179489017D01*
X352042521Y-179508230D01*
X352054818Y-179528747D01*
X352065046Y-179550371D01*
X352073104Y-179572893D01*
X352078916Y-179596097D01*
X352082426Y-179619758D01*
X352083600Y-179643650D01*
X352083600Y-180131150D01*
X352082426Y-180155042D01*
X352078916Y-180178703D01*
X352073104Y-180201907D01*
X352065046Y-180224429D01*
X352054818Y-180246053D01*
X352042521Y-180266570D01*
X352028271Y-180285783D01*
X352012207Y-180303507D01*
X351994483Y-180319571D01*
X351975270Y-180333821D01*
X351954753Y-180346118D01*
X351933129Y-180356346D01*
X351910607Y-180364404D01*
X351887403Y-180370216D01*
X351863742Y-180373726D01*
X351839850Y-180374900D01*
X350927350Y-180374900D01*
X350903458Y-180373726D01*
X350879797Y-180370216D01*
X350856593Y-180364404D01*
X350834071Y-180356346D01*
X350812447Y-180346118D01*
X350791930Y-180333821D01*
X350772717Y-180319571D01*
X350754993Y-180303507D01*
X350738929Y-180285783D01*
X350724679Y-180266570D01*
X350712382Y-180246053D01*
X350702154Y-180224429D01*
X350694096Y-180201907D01*
X350688284Y-180178703D01*
X350684774Y-180155042D01*
X350683600Y-180131150D01*
X350683600Y-179643650D01*
X350684774Y-179619758D01*
X350688284Y-179596097D01*
X350694096Y-179572893D01*
X350702154Y-179550371D01*
X350712382Y-179528747D01*
X350724679Y-179508230D01*
X350738929Y-179489017D01*
X350754993Y-179471293D01*
X350772717Y-179455229D01*
X350791930Y-179440979D01*
X350812447Y-179428682D01*
X350834071Y-179418454D01*
X350856593Y-179410396D01*
X350879797Y-179404584D01*
X350903458Y-179401074D01*
X350927350Y-179399900D01*
X351839850Y-179399900D01*
X351863742Y-179401074D01*
G37*
D11*
X109397800Y-103022000D03*
X109397800Y-99822000D03*
X114297800Y-103022000D03*
X114297800Y-99822000D03*
X167284400Y-103454200D03*
X167284400Y-100254200D03*
X172184400Y-103454200D03*
X172184400Y-100254200D03*
X265774000Y-106044800D03*
X265774000Y-102844800D03*
X270674000Y-106044800D03*
X270674000Y-102844800D03*
X332779200Y-97535800D03*
X332779200Y-94335800D03*
X337679200Y-97535800D03*
X337679200Y-94335800D03*
D12*
X380797000Y-121756000D03*
X383997000Y-121756000D03*
X380797000Y-126656000D03*
X383997000Y-126656000D03*
X381025600Y-157392200D03*
X384225600Y-157392200D03*
X381025600Y-162292200D03*
X384225600Y-162292200D03*
D11*
X358862800Y-178511400D03*
X358862800Y-181711400D03*
X353962800Y-178511400D03*
X353962800Y-181711400D03*
X282676600Y-178283000D03*
X282676600Y-181483000D03*
X277776600Y-178283000D03*
X277776600Y-181483000D03*
X213752600Y-178206600D03*
X213752600Y-181406600D03*
X208852600Y-178206600D03*
X208852600Y-181406600D03*
X142073800Y-178359000D03*
X142073800Y-181559000D03*
X137173800Y-178359000D03*
X137173800Y-181559000D03*
X94499600Y-178282800D03*
X94499600Y-181482800D03*
X89599600Y-178282800D03*
X89599600Y-181482800D03*
D12*
X69138600Y-169531200D03*
X65938600Y-169531200D03*
X69138600Y-164631200D03*
X65938600Y-164631200D03*
X68097200Y-116978600D03*
X64897200Y-116978600D03*
X68097200Y-112078600D03*
X64897200Y-112078600D03*
M02*
