  0
SECTION
  2
HEADER
  9
$ANGBASE
  50
0.0
  9
$ANGDIR
  70
1
  9
$MEASUREMENT
  70
1
  0
ENDSEC
  0
SECTION
  2
TABLES
  0
TABLE
  2
LTYPE
  70
4
  0
LTYPE
  5
40F
  2
CONTINUOUS
  70
0
  3
Solid line
  72
65
  73
0
  40
0.0
  0
LTYPE
  5
410
  2
DASHDOT
 70
0
  3
Dash Dot ____ _ ____ _
 72
65
 73
4
 40
2.0
 49
1.25
 49
-0.25
 49
0.25
 49
-0.25
  0
LTYPE
  5
411
  2
DASHED
 70
0
  3
Dashed __ __ __ __ __
 72
65
 73
2
 40
0.75
 49
0.5
 49
-0.25
  0
LTYPE
  5
43B
  2
DOTTED
 70
0
  3
Dotted .  .  .  .
 72
65
 73
2
 40
0.2
 49
0.0
 49
-0.2
  0
ENDTAB
  0
TABLE
  2
STYLE
  70
4
  0
STYLE
  2
KICAD
  70
0
  40
0
  41
1
  42
1
  50
0
  71
0
  3
isocp.shx
  0
STYLE
  2
KICADB
  70
0
  40
0
  41
1
  42
1
  50
0
  71
0
  3
isocp.shx
  0
STYLE
  2
KICADI
  70
0
  40
0
  41
1
  42
1
  50
15
  71
0
  3
isocp.shx
  0
STYLE
  2
KICADBI
  70
0
  40
0
  41
1
  42
1
  50
15
  71
0
  3
isocp.shx
  0
ENDTAB
  0
TABLE
  2
LAYER
  70
1
  0
LAYER
  2
BLACK
  70
0
  62
7
  6
CONTINUOUS
  0
ENDTAB
  0
ENDSEC
  0
SECTION
  2
ENTITIES
0
LINE
8
BLACK
6
CONTINUOUS
10
52.5869
20
-184.78
11
52.5852
21
-184.78
0
LINE
8
BLACK
6
CONTINUOUS
10
52.5852
20
-184.78
11
52.5835
21
-184.78
0
LINE
8
BLACK
6
CONTINUOUS
10
52.5835
20
-184.78
11
51.6307
21
-184.54
0
LINE
8
BLACK
6
CONTINUOUS
10
51.6307
20
-184.54
11
51.6301
21
-184.54
0
LINE
8
BLACK
6
CONTINUOUS
10
51.6301
20
-184.54
11
51.6285
21
-184.539
0
LINE
8
BLACK
6
CONTINUOUS
10
51.6285
20
-184.539
11
51.6268
21
-184.539
0
LINE
8
BLACK
6
CONTINUOUS
10
51.6268
20
-184.539
11
50.726
21
-184.147
0
LINE
8
BLACK
6
CONTINUOUS
10
50.726
20
-184.147
11
50.7254
21
-184.147
0
LINE
8
BLACK
6
CONTINUOUS
10
50.7254
20
-184.147
11
50.7239
21
-184.146
0
LINE
8
BLACK
6
CONTINUOUS
10
50.7239
20
-184.146
11
50.7224
21
-184.145
0
LINE
8
BLACK
6
CONTINUOUS
10
50.7224
20
-184.145
11
49.8976
21
-183.612
0
LINE
8
BLACK
6
CONTINUOUS
10
49.8976
20
-183.612
11
49.8971
21
-183.611
0
LINE
8
BLACK
6
CONTINUOUS
10
49.8971
20
-183.611
11
49.8957
21
-183.61
0
LINE
8
BLACK
6
CONTINUOUS
10
49.8957
20
-183.61
11
49.8943
21
-183.609
0
LINE
8
BLACK
6
CONTINUOUS
10
49.8943
20
-183.609
11
49.1677
21
-182.948
0
LINE
8
BLACK
6
CONTINUOUS
10
49.1677
20
-182.948
11
49.1673
21
-182.948
0
LINE
8
BLACK
6
CONTINUOUS
10
49.1673
20
-182.948
11
49.1661
21
-182.946
0
LINE
8
BLACK
6
CONTINUOUS
10
49.1661
20
-182.946
11
49.165
21
-182.945
0
LINE
8
BLACK
6
CONTINUOUS
10
49.165
20
-182.945
11
48.5561
21
-182.174
0
LINE
8
BLACK
6
CONTINUOUS
10
48.5561
20
-182.174
11
48.5557
21
-182.174
0
LINE
8
BLACK
6
CONTINUOUS
10
48.5557
20
-182.174
11
48.5548
21
-182.172
0
LINE
8
BLACK
6
CONTINUOUS
10
48.5548
20
-182.172
11
48.5538
21
-182.171
0
LINE
8
BLACK
6
CONTINUOUS
10
48.5538
20
-182.171
11
48.0791
21
-181.311
0
LINE
8
BLACK
6
CONTINUOUS
10
48.0791
20
-181.311
11
48.0788
21
-181.31
0
LINE
8
BLACK
6
CONTINUOUS
10
48.0788
20
-181.31
11
48.0781
21
-181.309
0
LINE
8
BLACK
6
CONTINUOUS
10
48.0781
20
-181.309
11
48.0774
21
-181.307
0
LINE
8
BLACK
6
CONTINUOUS
10
48.0774
20
-181.307
11
47.7495
21
-180.381
0
LINE
8
BLACK
6
CONTINUOUS
10
47.7495
20
-180.381
11
47.7493
21
-180.38
0
LINE
8
BLACK
6
CONTINUOUS
10
47.7493
20
-180.38
11
47.7489
21
-180.379
0
LINE
8
BLACK
6
CONTINUOUS
10
47.7489
20
-180.379
11
47.7485
21
-180.377
0
LINE
8
BLACK
6
CONTINUOUS
10
47.7485
20
-180.377
11
47.5762
21
-179.41
0
LINE
8
BLACK
6
CONTINUOUS
10
47.5762
20
-179.41
11
47.5761
21
-179.409
0
LINE
8
BLACK
6
CONTINUOUS
10
47.5761
20
-179.409
11
47.576
21
-179.408
0
LINE
8
BLACK
6
CONTINUOUS
10
47.576
20
-179.408
11
47.5758
21
-179.407
0
LINE
8
BLACK
6
CONTINUOUS
10
47.5758
20
-179.407
11
47.5493
21
-178.843
0
LINE
8
BLACK
6
CONTINUOUS
10
47.5493
20
-178.843
11
47.5492
21
-178.843
0
LINE
8
BLACK
6
CONTINUOUS
10
47.5492
20
-178.843
11
47.5492
21
-91.3626
0
LINE
8
BLACK
6
CONTINUOUS
10
47.5492
20
-91.3626
11
47.5493
21
-91.3617
0
LINE
8
BLACK
6
CONTINUOUS
10
47.5493
20
-91.3617
11
47.6298
21
-90.3827
0
LINE
8
BLACK
6
CONTINUOUS
10
47.6298
20
-90.3827
11
47.6298
21
-90.3821
0
LINE
8
BLACK
6
CONTINUOUS
10
47.6298
20
-90.3821
11
47.6302
21
-90.3804
0
LINE
8
BLACK
6
CONTINUOUS
10
47.6302
20
-90.3804
11
47.6304
21
-90.3787
0
LINE
8
BLACK
6
CONTINUOUS
10
47.6304
20
-90.3787
11
47.8698
21
-89.4259
0
LINE
8
BLACK
6
CONTINUOUS
10
47.8698
20
-89.4259
11
47.8699
21
-89.4253
0
LINE
8
BLACK
6
CONTINUOUS
10
47.8699
20
-89.4253
11
47.8705
21
-89.4237
0
LINE
8
BLACK
6
CONTINUOUS
10
47.8705
20
-89.4237
11
47.8711
21
-89.422
0
LINE
8
BLACK
6
CONTINUOUS
10
47.8711
20
-89.422
11
48.2628
21
-88.5212
0
LINE
8
BLACK
6
CONTINUOUS
10
48.2628
20
-88.5212
11
48.263
21
-88.5206
0
LINE
8
BLACK
6
CONTINUOUS
10
48.263
20
-88.5206
11
48.2639
21
-88.5191
0
LINE
8
BLACK
6
CONTINUOUS
10
48.2639
20
-88.5191
11
48.2647
21
-88.5176
0
LINE
8
BLACK
6
CONTINUOUS
10
48.2647
20
-88.5176
11
48.7983
21
-87.6928
0
LINE
8
BLACK
6
CONTINUOUS
10
48.7983
20
-87.6928
11
48.7986
21
-87.6923
0
LINE
8
BLACK
6
CONTINUOUS
10
48.7986
20
-87.6923
11
48.7998
21
-87.6909
0
LINE
8
BLACK
6
CONTINUOUS
10
48.7998
20
-87.6909
11
48.8008
21
-87.6895
0
LINE
8
BLACK
6
CONTINUOUS
10
48.8008
20
-87.6895
11
49.4619
21
-86.9629
0
LINE
8
BLACK
6
CONTINUOUS
10
49.4619
20
-86.9629
11
49.4624
21
-86.9625
0
LINE
8
BLACK
6
CONTINUOUS
10
49.4624
20
-86.9625
11
49.4637
21
-86.9613
0
LINE
8
BLACK
6
CONTINUOUS
10
49.4637
20
-86.9613
11
49.4649
21
-86.9602
0
LINE
8
BLACK
6
CONTINUOUS
10
49.4649
20
-86.9602
11
50.2359
21
-86.3513
0
LINE
8
BLACK
6
CONTINUOUS
10
50.2359
20
-86.3513
11
50.2363
21
-86.3509
0
LINE
8
BLACK
6
CONTINUOUS
10
50.2363
20
-86.3509
11
50.2378
21
-86.35
0
LINE
8
BLACK
6
CONTINUOUS
10
50.2378
20
-86.35
11
50.2393
21
-86.349
0
LINE
8
BLACK
6
CONTINUOUS
10
50.2393
20
-86.349
11
51.0993
21
-85.8743
0
LINE
8
BLACK
6
CONTINUOUS
10
51.0993
20
-85.8743
11
51.0998
21
-85.874
0
LINE
8
BLACK
6
CONTINUOUS
10
51.0998
20
-85.874
11
51.1014
21
-85.8733
0
LINE
8
BLACK
6
CONTINUOUS
10
51.1014
20
-85.8733
11
51.103
21
-85.8726
0
LINE
8
BLACK
6
CONTINUOUS
10
51.103
20
-85.8726
11
52.029
21
-85.5447
0
LINE
8
BLACK
6
CONTINUOUS
10
52.029
20
-85.5447
11
52.0296
21
-85.5445
0
LINE
8
BLACK
6
CONTINUOUS
10
52.0296
20
-85.5445
11
52.0313
21
-85.5441
0
LINE
8
BLACK
6
CONTINUOUS
10
52.0313
20
-85.5441
11
52.033
21
-85.5437
0
LINE
8
BLACK
6
CONTINUOUS
10
52.033
20
-85.5437
11
53.0001
21
-85.3714
0
LINE
8
BLACK
6
CONTINUOUS
10
53.0001
20
-85.3714
11
53.0007
21
-85.3713
0
LINE
8
BLACK
6
CONTINUOUS
10
53.0007
20
-85.3713
11
53.002
21
-85.3712
0
LINE
8
BLACK
6
CONTINUOUS
10
53.002
20
-85.3712
11
53.0033
21
-85.371
0
LINE
8
BLACK
6
CONTINUOUS
10
53.0033
20
-85.371
11
53.5674
21
-85.3444
0
LINE
8
BLACK
6
CONTINUOUS
10
53.5674
20
-85.3444
11
53.568
21
-85.3444
0
LINE
8
BLACK
6
CONTINUOUS
10
53.568
20
-85.3444
11
53.5721
21
-85.3447
0
LINE
8
BLACK
6
CONTINUOUS
10
53.5721
20
-85.3447
11
53.5761
21
-85.3456
0
LINE
8
BLACK
6
CONTINUOUS
10
53.5761
20
-85.3456
11
53.5799
21
-85.3471
0
LINE
8
BLACK
6
CONTINUOUS
10
53.5799
20
-85.3471
11
53.5834
21
-85.3493
0
LINE
8
BLACK
6
CONTINUOUS
10
53.5834
20
-85.3493
11
53.5865
21
-85.3519
0
LINE
8
BLACK
6
CONTINUOUS
10
53.5865
20
-85.3519
11
53.5891
21
-85.3551
0
LINE
8
BLACK
6
CONTINUOUS
10
53.5891
20
-85.3551
11
53.5912
21
-85.3586
0
LINE
8
BLACK
6
CONTINUOUS
10
53.5912
20
-85.3586
11
53.5926
21
-85.3625
0
LINE
8
BLACK
6
CONTINUOUS
10
53.5926
20
-85.3625
11
53.5934
21
-85.3665
0
LINE
8
BLACK
6
CONTINUOUS
10
53.5934
20
-85.3665
11
53.5936
21
-85.3706
0
LINE
8
BLACK
6
CONTINUOUS
10
53.5936
20
-85.3706
11
53.593
21
-85.3746
0
LINE
8
BLACK
6
CONTINUOUS
10
53.593
20
-85.3746
11
53.5919
21
-85.3786
0
LINE
8
BLACK
6
CONTINUOUS
10
53.5919
20
-85.3786
11
53.5901
21
-85.3822
0
LINE
8
BLACK
6
CONTINUOUS
10
53.5901
20
-85.3822
11
53.5877
21
-85.3856
0
LINE
8
BLACK
6
CONTINUOUS
10
53.5877
20
-85.3856
11
53.5848
21
-85.3885
0
LINE
8
BLACK
6
CONTINUOUS
10
53.5848
20
-85.3885
11
53.5814
21
-85.3909
0
LINE
8
BLACK
6
CONTINUOUS
10
53.5814
20
-85.3909
11
53.5778
21
-85.3927
0
LINE
8
BLACK
6
CONTINUOUS
10
53.5778
20
-85.3927
11
53.5738
21
-85.3938
0
LINE
8
BLACK
6
CONTINUOUS
10
53.5738
20
-85.3938
11
53.5698
21
-85.3944
0
LINE
8
BLACK
6
CONTINUOUS
10
53.5698
20
-85.3944
11
53.0073
21
-85.4209
0
LINE
8
BLACK
6
CONTINUOUS
10
53.0073
20
-85.4209
11
52.0438
21
-85.5925
0
LINE
8
BLACK
6
CONTINUOUS
10
52.0438
20
-85.5925
11
51.1216
21
-85.9191
0
LINE
8
BLACK
6
CONTINUOUS
10
51.1216
20
-85.9191
11
50.2652
21
-86.3918
0
LINE
8
BLACK
6
CONTINUOUS
10
50.2652
20
-86.3918
11
49.4975
21
-86.9981
0
LINE
8
BLACK
6
CONTINUOUS
10
49.4975
20
-86.9981
11
48.8392
21
-87.7217
0
LINE
8
BLACK
6
CONTINUOUS
10
48.8392
20
-87.7217
11
48.3078
21
-88.543
0
LINE
8
BLACK
6
CONTINUOUS
10
48.3078
20
-88.543
11
47.9178
21
-89.4401
0
LINE
8
BLACK
6
CONTINUOUS
10
47.9178
20
-89.4401
11
47.6794
21
-90.3889
0
LINE
8
BLACK
6
CONTINUOUS
10
47.6794
20
-90.3889
11
47.5992
21
-91.3648
0
LINE
8
BLACK
6
CONTINUOUS
10
47.5992
20
-91.3648
11
47.5992
21
-178.841
0
LINE
8
BLACK
6
CONTINUOUS
10
47.5992
20
-178.841
11
47.6257
21
-179.403
0
LINE
8
BLACK
6
CONTINUOUS
10
47.6257
20
-179.403
11
47.7973
21
-180.366
0
LINE
8
BLACK
6
CONTINUOUS
10
47.7973
20
-180.366
11
48.1239
21
-181.288
0
LINE
8
BLACK
6
CONTINUOUS
10
48.1239
20
-181.288
11
48.5966
21
-182.145
0
LINE
8
BLACK
6
CONTINUOUS
10
48.5966
20
-182.145
11
49.2029
21
-182.912
0
LINE
8
BLACK
6
CONTINUOUS
10
49.2029
20
-182.912
11
49.9264
21
-183.571
0
LINE
8
BLACK
6
CONTINUOUS
10
49.9264
20
-183.571
11
50.7478
21
-184.102
0
LINE
8
BLACK
6
CONTINUOUS
10
50.7478
20
-184.102
11
51.6449
21
-184.492
0
LINE
8
BLACK
6
CONTINUOUS
10
51.6449
20
-184.492
11
52.5937
21
-184.731
0
LINE
8
BLACK
6
CONTINUOUS
10
52.5937
20
-184.731
11
53.5696
21
-184.811
0
LINE
8
BLACK
6
CONTINUOUS
10
53.5696
20
-184.811
11
387.324
21
-184.811
0
LINE
8
BLACK
6
CONTINUOUS
10
387.324
20
-184.811
11
387.884
21
-184.784
0
LINE
8
BLACK
6
CONTINUOUS
10
387.884
20
-184.784
11
388.843
21
-184.614
0
LINE
8
BLACK
6
CONTINUOUS
10
388.843
20
-184.614
11
389.761
21
-184.288
0
LINE
8
BLACK
6
CONTINUOUS
10
389.761
20
-184.288
11
390.614
21
-183.818
0
LINE
8
BLACK
6
CONTINUOUS
10
390.614
20
-183.818
11
391.378
21
-183.214
0
LINE
8
BLACK
6
CONTINUOUS
10
391.378
20
-183.214
11
392.034
21
-182.493
0
LINE
8
BLACK
6
CONTINUOUS
10
392.034
20
-182.493
11
392.563
21
-181.676
0
LINE
8
BLACK
6
CONTINUOUS
10
392.563
20
-181.676
11
392.951
21
-180.782
0
LINE
8
BLACK
6
CONTINUOUS
10
392.951
20
-180.782
11
393.189
21
-179.838
0
LINE
8
BLACK
6
CONTINUOUS
10
393.189
20
-179.838
11
393.269
21
-178.866
0
LINE
8
BLACK
6
CONTINUOUS
10
393.269
20
-178.866
11
393.269
21
-91.3643
0
LINE
8
BLACK
6
CONTINUOUS
10
393.269
20
-91.3643
11
393.25
21
-90.8908
0
LINE
8
BLACK
6
CONTINUOUS
10
393.25
20
-90.8908
11
393.092
21
-89.9247
0
LINE
8
BLACK
6
CONTINUOUS
10
393.092
20
-89.9247
11
392.78
21
-88.9979
0
LINE
8
BLACK
6
CONTINUOUS
10
392.78
20
-88.9979
11
392.32
21
-88.1345
0
LINE
8
BLACK
6
CONTINUOUS
10
392.32
20
-88.1345
11
391.725
21
-87.3579
0
LINE
8
BLACK
6
CONTINUOUS
10
391.725
20
-87.3579
11
391.011
21
-86.6889
0
LINE
8
BLACK
6
CONTINUOUS
10
391.011
20
-86.6889
11
390.198
21
-86.1454
0
LINE
8
BLACK
6
CONTINUOUS
10
390.198
20
-86.1454
11
389.306
21
-85.7421
0
LINE
8
BLACK
6
CONTINUOUS
10
389.306
20
-85.7421
11
388.361
21
-85.4897
0
LINE
8
BLACK
6
CONTINUOUS
10
388.361
20
-85.4897
11
387.387
21
-85.3951
0
LINE
8
BLACK
6
CONTINUOUS
10
387.387
20
-85.3951
11
53.6436
21
-85.3944
0
LINE
8
BLACK
6
CONTINUOUS
10
53.6436
20
-85.3944
11
53.6399
21
-85.394
0
LINE
8
BLACK
6
CONTINUOUS
10
53.6399
20
-85.394
11
53.6352
21
-85.3926
0
LINE
8
BLACK
6
CONTINUOUS
10
53.6352
20
-85.3926
11
53.6308
21
-85.3903
0
LINE
8
BLACK
6
CONTINUOUS
10
53.6308
20
-85.3903
11
53.627
21
-85.3872
0
LINE
8
BLACK
6
CONTINUOUS
10
53.627
20
-85.3872
11
53.6239
21
-85.3834
0
LINE
8
BLACK
6
CONTINUOUS
10
53.6239
20
-85.3834
11
53.6216
21
-85.379
0
LINE
8
BLACK
6
CONTINUOUS
10
53.6216
20
-85.379
11
53.6202
21
-85.3743
0
LINE
8
BLACK
6
CONTINUOUS
10
53.6202
20
-85.3743
11
53.6197
21
-85.3694
0
LINE
8
BLACK
6
CONTINUOUS
10
53.6197
20
-85.3694
11
53.6202
21
-85.3645
0
LINE
8
BLACK
6
CONTINUOUS
10
53.6202
20
-85.3645
11
53.6216
21
-85.3598
0
LINE
8
BLACK
6
CONTINUOUS
10
53.6216
20
-85.3598
11
53.6239
21
-85.3554
0
LINE
8
BLACK
6
CONTINUOUS
10
53.6239
20
-85.3554
11
53.627
21
-85.3516
0
LINE
8
BLACK
6
CONTINUOUS
10
53.627
20
-85.3516
11
53.6308
21
-85.3485
0
LINE
8
BLACK
6
CONTINUOUS
10
53.6308
20
-85.3485
11
53.6352
21
-85.3462
0
LINE
8
BLACK
6
CONTINUOUS
10
53.6352
20
-85.3462
11
53.6399
21
-85.3448
0
LINE
8
BLACK
6
CONTINUOUS
10
53.6399
20
-85.3448
11
53.6436
21
-85.3444
0
LINE
8
BLACK
6
CONTINUOUS
10
53.6436
20
-85.3444
11
387.389
21
-85.3451
0
LINE
8
BLACK
6
CONTINUOUS
10
387.389
20
-85.3451
11
387.39
21
-85.3452
0
LINE
8
BLACK
6
CONTINUOUS
10
387.39
20
-85.3452
11
387.391
21
-85.3452
0
LINE
8
BLACK
6
CONTINUOUS
10
387.391
20
-85.3452
11
388.368
21
-85.4402
0
LINE
8
BLACK
6
CONTINUOUS
10
388.368
20
-85.4402
11
388.369
21
-85.4402
0
LINE
8
BLACK
6
CONTINUOUS
10
388.369
20
-85.4402
11
388.371
21
-85.4406
0
LINE
8
BLACK
6
CONTINUOUS
10
388.371
20
-85.4406
11
388.372
21
-85.4409
0
LINE
8
BLACK
6
CONTINUOUS
10
388.372
20
-85.4409
11
389.321
21
-85.6943
0
LINE
8
BLACK
6
CONTINUOUS
10
389.321
20
-85.6943
11
389.322
21
-85.6945
0
LINE
8
BLACK
6
CONTINUOUS
10
389.322
20
-85.6945
11
389.324
21
-85.6951
0
LINE
8
BLACK
6
CONTINUOUS
10
389.324
20
-85.6951
11
389.325
21
-85.6957
0
LINE
8
BLACK
6
CONTINUOUS
10
389.325
20
-85.6957
11
390.22
21
-86.1007
0
LINE
8
BLACK
6
CONTINUOUS
10
390.22
20
-86.1007
11
390.221
21
-86.101
0
LINE
8
BLACK
6
CONTINUOUS
10
390.221
20
-86.101
11
390.222
21
-86.1019
0
LINE
8
BLACK
6
CONTINUOUS
10
390.222
20
-86.1019
11
390.224
21
-86.1027
0
LINE
8
BLACK
6
CONTINUOUS
10
390.224
20
-86.1027
11
391.041
21
-86.6485
0
LINE
8
BLACK
6
CONTINUOUS
10
391.041
20
-86.6485
11
391.041
21
-86.6488
0
LINE
8
BLACK
6
CONTINUOUS
10
391.041
20
-86.6488
11
391.042
21
-86.6499
0
LINE
8
BLACK
6
CONTINUOUS
10
391.042
20
-86.6499
11
391.044
21
-86.651
0
LINE
8
BLACK
6
CONTINUOUS
10
391.044
20
-86.651
11
391.76
21
-87.3228
0
LINE
8
BLACK
6
CONTINUOUS
10
391.76
20
-87.3228
11
391.761
21
-87.3233
0
LINE
8
BLACK
6
CONTINUOUS
10
391.761
20
-87.3233
11
391.762
21
-87.3246
0
LINE
8
BLACK
6
CONTINUOUS
10
391.762
20
-87.3246
11
391.763
21
-87.3259
0
LINE
8
BLACK
6
CONTINUOUS
10
391.763
20
-87.3259
11
392.361
21
-88.1058
0
LINE
8
BLACK
6
CONTINUOUS
10
392.361
20
-88.1058
11
392.361
21
-88.1062
0
LINE
8
BLACK
6
CONTINUOUS
10
392.361
20
-88.1062
11
392.362
21
-88.1077
0
LINE
8
BLACK
6
CONTINUOUS
10
392.362
20
-88.1077
11
392.363
21
-88.1092
0
LINE
8
BLACK
6
CONTINUOUS
10
392.363
20
-88.1092
11
392.825
21
-88.9761
0
LINE
8
BLACK
6
CONTINUOUS
10
392.825
20
-88.9761
11
392.825
21
-88.9767
0
LINE
8
BLACK
6
CONTINUOUS
10
392.825
20
-88.9767
11
392.826
21
-88.9783
0
LINE
8
BLACK
6
CONTINUOUS
10
392.826
20
-88.9783
11
392.826
21
-88.9799
0
LINE
8
BLACK
6
CONTINUOUS
10
392.826
20
-88.9799
11
393.14
21
-89.9107
0
LINE
8
BLACK
6
CONTINUOUS
10
393.14
20
-89.9107
11
393.141
21
-89.9113
0
LINE
8
BLACK
6
CONTINUOUS
10
393.141
20
-89.9113
11
393.141
21
-89.913
0
LINE
8
BLACK
6
CONTINUOUS
10
393.141
20
-89.913
11
393.141
21
-89.9146
0
LINE
8
BLACK
6
CONTINUOUS
10
393.141
20
-89.9146
11
393.299
21
-90.8842
0
LINE
8
BLACK
6
CONTINUOUS
10
393.299
20
-90.8842
11
393.299
21
-90.8848
0
LINE
8
BLACK
6
CONTINUOUS
10
393.299
20
-90.8848
11
393.3
21
-90.886
0
LINE
8
BLACK
6
CONTINUOUS
10
393.3
20
-90.886
11
393.3
21
-90.8872
0
LINE
8
BLACK
6
CONTINUOUS
10
393.3
20
-90.8872
11
393.319
21
-91.3621
0
LINE
8
BLACK
6
CONTINUOUS
10
393.319
20
-91.3621
11
393.319
21
-91.3626
0
LINE
8
BLACK
6
CONTINUOUS
10
393.319
20
-91.3626
11
393.319
21
-178.868
0
LINE
8
BLACK
6
CONTINUOUS
10
393.319
20
-178.868
11
393.319
21
-178.869
0
LINE
8
BLACK
6
CONTINUOUS
10
393.319
20
-178.869
11
393.238
21
-179.844
0
LINE
8
BLACK
6
CONTINUOUS
10
393.238
20
-179.844
11
393.238
21
-179.844
0
LINE
8
BLACK
6
CONTINUOUS
10
393.238
20
-179.844
11
393.238
21
-179.846
0
LINE
8
BLACK
6
CONTINUOUS
10
393.238
20
-179.846
11
393.238
21
-179.848
0
LINE
8
BLACK
6
CONTINUOUS
10
393.238
20
-179.848
11
392.999
21
-180.796
0
LINE
8
BLACK
6
CONTINUOUS
10
392.999
20
-180.796
11
392.999
21
-180.797
0
LINE
8
BLACK
6
CONTINUOUS
10
392.999
20
-180.797
11
392.999
21
-180.799
0
LINE
8
BLACK
6
CONTINUOUS
10
392.999
20
-180.799
11
392.998
21
-180.8
0
LINE
8
BLACK
6
CONTINUOUS
10
392.998
20
-180.8
11
392.608
21
-181.697
0
LINE
8
BLACK
6
CONTINUOUS
10
392.608
20
-181.697
11
392.608
21
-181.698
0
LINE
8
BLACK
6
CONTINUOUS
10
392.608
20
-181.698
11
392.607
21
-181.699
0
LINE
8
BLACK
6
CONTINUOUS
10
392.607
20
-181.699
11
392.606
21
-181.701
0
LINE
8
BLACK
6
CONTINUOUS
10
392.606
20
-181.701
11
392.075
21
-182.522
0
LINE
8
BLACK
6
CONTINUOUS
10
392.075
20
-182.522
11
392.075
21
-182.522
0
LINE
8
BLACK
6
CONTINUOUS
10
392.075
20
-182.522
11
392.075
21
-182.522
0
LINE
8
BLACK
6
CONTINUOUS
10
392.075
20
-182.522
11
392.074
21
-182.523
0
LINE
8
BLACK
6
CONTINUOUS
10
392.074
20
-182.523
11
392.073
21
-182.524
0
LINE
8
BLACK
6
CONTINUOUS
10
392.073
20
-182.524
11
392.072
21
-182.526
0
LINE
8
BLACK
6
CONTINUOUS
10
392.072
20
-182.526
11
391.414
21
-183.249
0
LINE
8
BLACK
6
CONTINUOUS
10
391.414
20
-183.249
11
391.414
21
-183.25
0
LINE
8
BLACK
6
CONTINUOUS
10
391.414
20
-183.25
11
391.412
21
-183.251
0
LINE
8
BLACK
6
CONTINUOUS
10
391.412
20
-183.251
11
391.411
21
-183.252
0
LINE
8
BLACK
6
CONTINUOUS
10
391.411
20
-183.252
11
390.643
21
-183.858
0
LINE
8
BLACK
6
CONTINUOUS
10
390.643
20
-183.858
11
390.643
21
-183.858
0
LINE
8
BLACK
6
CONTINUOUS
10
390.643
20
-183.858
11
390.641
21
-183.859
0
LINE
8
BLACK
6
CONTINUOUS
10
390.641
20
-183.859
11
390.64
21
-183.86
0
LINE
8
BLACK
6
CONTINUOUS
10
390.64
20
-183.86
11
389.784
21
-184.333
0
LINE
8
BLACK
6
CONTINUOUS
10
389.784
20
-184.333
11
389.783
21
-184.333
0
LINE
8
BLACK
6
CONTINUOUS
10
389.783
20
-184.333
11
389.781
21
-184.334
0
LINE
8
BLACK
6
CONTINUOUS
10
389.781
20
-184.334
11
389.78
21
-184.335
0
LINE
8
BLACK
6
CONTINUOUS
10
389.78
20
-184.335
11
388.858
21
-184.661
0
LINE
8
BLACK
6
CONTINUOUS
10
388.858
20
-184.661
11
388.857
21
-184.662
0
LINE
8
BLACK
6
CONTINUOUS
10
388.857
20
-184.662
11
388.855
21
-184.662
0
LINE
8
BLACK
6
CONTINUOUS
10
388.855
20
-184.662
11
388.854
21
-184.662
0
LINE
8
BLACK
6
CONTINUOUS
10
388.854
20
-184.662
11
387.891
21
-184.834
0
LINE
8
BLACK
6
CONTINUOUS
10
387.891
20
-184.834
11
387.89
21
-184.834
0
LINE
8
BLACK
6
CONTINUOUS
10
387.89
20
-184.834
11
387.889
21
-184.834
0
LINE
8
BLACK
6
CONTINUOUS
10
387.889
20
-184.834
11
387.888
21
-184.834
0
LINE
8
BLACK
6
CONTINUOUS
10
387.888
20
-184.834
11
387.326
21
-184.861
0
LINE
8
BLACK
6
CONTINUOUS
10
387.326
20
-184.861
11
387.326
21
-184.861
0
LINE
8
BLACK
6
CONTINUOUS
10
387.326
20
-184.861
11
53.5674
21
-184.861
0
LINE
8
BLACK
6
CONTINUOUS
10
53.5674
20
-184.861
11
53.5664
21
-184.861
0
LINE
8
BLACK
6
CONTINUOUS
10
53.5664
20
-184.861
11
52.5875
21
-184.78
0
LINE
8
BLACK
6
CONTINUOUS
10
52.5875
20
-184.78
11
52.5875
21
-184.78
0
LINE
8
BLACK
6
CONTINUOUS
10
52.5875
20
-184.78
11
52.5869
21
-184.78
0
LINE
8
BLACK
6
CONTINUOUS
10
72.7739
20
-96.2314
11
72.7828
21
-96.2323
0
LINE
8
BLACK
6
CONTINUOUS
10
72.7828
20
-96.2323
11
72.7941
21
-96.2357
0
LINE
8
BLACK
6
CONTINUOUS
10
72.7941
20
-96.2357
11
72.8045
21
-96.2413
0
LINE
8
BLACK
6
CONTINUOUS
10
72.8045
20
-96.2413
11
72.8136
21
-96.2488
0
LINE
8
BLACK
6
CONTINUOUS
10
72.8136
20
-96.2488
11
72.8211
21
-96.2579
0
LINE
8
BLACK
6
CONTINUOUS
10
72.8211
20
-96.2579
11
72.8267
21
-96.2683
0
LINE
8
BLACK
6
CONTINUOUS
10
72.8267
20
-96.2683
11
72.8301
21
-96.2796
0
LINE
8
BLACK
6
CONTINUOUS
10
72.8301
20
-96.2796
11
72.8313
21
-96.2914
0
LINE
8
BLACK
6
CONTINUOUS
10
72.8313
20
-96.2914
11
72.831
21
-96.2943
0
LINE
8
BLACK
6
CONTINUOUS
10
72.831
20
-96.2943
11
72.831
21
-107.083
0
LINE
8
BLACK
6
CONTINUOUS
10
72.831
20
-107.083
11
72.8313
21
-107.086
0
LINE
8
BLACK
6
CONTINUOUS
10
72.8313
20
-107.086
11
72.8301
21
-107.098
0
LINE
8
BLACK
6
CONTINUOUS
10
72.8301
20
-107.098
11
72.8267
21
-107.109
0
LINE
8
BLACK
6
CONTINUOUS
10
72.8267
20
-107.109
11
72.8211
21
-107.12
0
LINE
8
BLACK
6
CONTINUOUS
10
72.8211
20
-107.12
11
72.8136
21
-107.129
0
LINE
8
BLACK
6
CONTINUOUS
10
72.8136
20
-107.129
11
72.8045
21
-107.137
0
LINE
8
BLACK
6
CONTINUOUS
10
72.8045
20
-107.137
11
72.7941
21
-107.142
0
LINE
8
BLACK
6
CONTINUOUS
10
72.7941
20
-107.142
11
72.7828
21
-107.146
0
LINE
8
BLACK
6
CONTINUOUS
10
72.7828
20
-107.146
11
72.7739
21
-107.146
0
LINE
8
BLACK
6
CONTINUOUS
10
72.7739
20
-107.146
11
72.7739
21
-107.146
0
LINE
8
BLACK
6
CONTINUOUS
10
72.7739
20
-107.146
11
72.771
21
-107.147
0
LINE
8
BLACK
6
CONTINUOUS
10
72.771
20
-107.147
11
72.7681
21
-107.146
0
LINE
8
BLACK
6
CONTINUOUS
10
72.7681
20
-107.146
11
60.0739
21
-107.146
0
LINE
8
BLACK
6
CONTINUOUS
10
60.0739
20
-107.146
11
60.071
21
-107.147
0
LINE
8
BLACK
6
CONTINUOUS
10
60.071
20
-107.147
11
60.0681
21
-107.146
0
LINE
8
BLACK
6
CONTINUOUS
10
60.0681
20
-107.146
11
60.0681
21
-107.146
0
LINE
8
BLACK
6
CONTINUOUS
10
60.0681
20
-107.146
11
60.0592
21
-107.146
0
LINE
8
BLACK
6
CONTINUOUS
10
60.0592
20
-107.146
11
60.0479
21
-107.142
0
LINE
8
BLACK
6
CONTINUOUS
10
60.0479
20
-107.142
11
60.0375
21
-107.137
0
LINE
8
BLACK
6
CONTINUOUS
10
60.0375
20
-107.137
11
60.0284
21
-107.129
0
LINE
8
BLACK
6
CONTINUOUS
10
60.0284
20
-107.129
11
60.0209
21
-107.12
0
LINE
8
BLACK
6
CONTINUOUS
10
60.0209
20
-107.12
11
60.0153
21
-107.109
0
LINE
8
BLACK
6
CONTINUOUS
10
60.0153
20
-107.109
11
60.0119
21
-107.098
0
LINE
8
BLACK
6
CONTINUOUS
10
60.0119
20
-107.098
11
60.0107
21
-107.086
0
LINE
8
BLACK
6
CONTINUOUS
10
60.0107
20
-107.086
11
60.011
21
-107.083
0
LINE
8
BLACK
6
CONTINUOUS
10
60.011
20
-107.083
11
60.011
21
-96.2943
0
LINE
8
BLACK
6
CONTINUOUS
10
60.011
20
-96.2943
11
60.0107
21
-96.2914
0
LINE
8
BLACK
6
CONTINUOUS
10
60.0107
20
-96.2914
11
60.0119
21
-96.2796
0
LINE
8
BLACK
6
CONTINUOUS
10
60.0119
20
-96.2796
11
60.0153
21
-96.2683
0
LINE
8
BLACK
6
CONTINUOUS
10
60.0153
20
-96.2683
11
60.0209
21
-96.2579
0
LINE
8
BLACK
6
CONTINUOUS
10
60.0209
20
-96.2579
11
60.0284
21
-96.2488
0
LINE
8
BLACK
6
CONTINUOUS
10
60.0284
20
-96.2488
11
60.0375
21
-96.2413
0
LINE
8
BLACK
6
CONTINUOUS
10
60.0375
20
-96.2413
11
60.0479
21
-96.2357
0
LINE
8
BLACK
6
CONTINUOUS
10
60.0479
20
-96.2357
11
60.0592
21
-96.2323
0
LINE
8
BLACK
6
CONTINUOUS
10
60.0592
20
-96.2323
11
60.0681
21
-96.2314
0
LINE
8
BLACK
6
CONTINUOUS
10
60.0681
20
-96.2314
11
60.071
21
-96.2311
0
LINE
8
BLACK
6
CONTINUOUS
10
60.071
20
-96.2311
11
60.0739
21
-96.2314
0
LINE
8
BLACK
6
CONTINUOUS
10
60.0739
20
-96.2314
11
72.7681
21
-96.2314
0
LINE
8
BLACK
6
CONTINUOUS
10
72.7681
20
-96.2314
11
72.771
21
-96.2311
0
LINE
8
BLACK
6
CONTINUOUS
10
72.771
20
-96.2311
11
72.7739
21
-96.2314
0
LINE
8
BLACK
6
CONTINUOUS
10
60.131
20
-96.3514
11
60.131
21
-107.026
0
LINE
8
BLACK
6
CONTINUOUS
10
60.131
20
-107.026
11
72.711
21
-107.026
0
LINE
8
BLACK
6
CONTINUOUS
10
72.711
20
-107.026
11
72.711
21
-96.3514
0
LINE
8
BLACK
6
CONTINUOUS
10
72.711
20
-96.3514
11
60.131
21
-96.3514
  0
ENDSEC
  0
EOF
