M48
; DRILL file {KiCad 5.1.5+dfsg1-2build2} date Sat 08 Aug 2020 12:50:28 BST
; FORMAT={-:-/ absolute / inch / decimal}
; #@! TF.CreationDate,2020-08-08T12:50:28+01:00
; #@! TF.GenerationSoftware,Kicad,Pcbnew,5.1.5+dfsg1-2build2
FMAT,2
INCH
T1C0.0157
T2C0.0295
T3C0.0300
T4C0.0394
T5C0.0591
T6C0.0669
T7C0.1201
T8C0.1260
T9C0.1575
%
G90
G05
T1
X2.36Y-5.467
X2.522Y-6.4432
X2.589Y-4.871
X2.613Y-5.149
X2.841Y-4.845
X3.072Y-3.821
X3.144Y-3.663
X3.206Y-5.323
X3.349Y-4.076
X3.445Y-7.191
X3.7075Y-4.0495
X4.152Y-4.116
X4.587Y-3.832
X4.631Y-4.055
X4.913Y-4.117
X5.247Y-7.206
X5.871Y-4.173
X6.467Y-4.186
X6.481Y-3.989
X6.837Y-3.774
X6.889Y-4.073
X7.372Y-4.159
X8.105Y-7.195
X8.107Y-4.72
X8.726Y-4.752
X9.647Y-4.78
X10.307Y-4.046
X10.373Y-4.812
X10.753Y-4.049
X10.806Y-7.211
X10.901Y-4.175
X11.1164Y-4.8436
X11.9102Y-4.8688
X12.627Y-4.898
X12.91Y-4.175
X13.117Y-3.964
X13.353Y-4.036
X13.545Y-4.775
X13.822Y-7.202
X14.498Y-4.98
X14.774Y-4.228
X15.119Y-5.089
X15.161Y-6.51
T2
X12.865Y-6.613
X12.865Y-6.913
X6.539Y-4.378
X6.539Y-4.678
X12.193Y-3.613
X12.193Y-3.913
X8.404Y-3.624
X8.404Y-3.924
X11.78Y-4.368
X11.78Y-4.668
X12.095Y-3.609
X12.095Y-3.909
X9.715Y-5.131
X9.715Y-5.431
X4.248Y-5.127
X4.248Y-5.427
X13.387Y-5.865
X13.387Y-6.165
X7.1Y-5.86
X7.1Y-6.16
X12.666Y-5.121
X12.666Y-5.421
X7.674Y-3.627
X7.674Y-3.927
X9.172Y-3.624
X9.172Y-3.924
X11.024Y-4.364
X11.024Y-4.664
X11.399Y-3.609
X11.399Y-3.909
X5.166Y-6.614
X5.166Y-6.914
X3.207Y-5.868
X3.207Y-6.168
X6.165Y-3.627
X6.165Y-3.927
X9.56Y-4.366
X9.56Y-4.666
X11.968Y-5.128
X11.968Y-5.428
X13.645Y-6.614
X13.645Y-6.914
X6.915Y-3.627
X6.915Y-3.927
X14.408Y-6.614
X14.408Y-6.914
X8.682Y-6.615
X8.682Y-6.915
X15.097Y-4.366
X15.097Y-4.666
X10.667Y-3.618
X10.667Y-3.918
X12.951Y-6.613
X12.951Y-6.913
X7.29Y-4.378
X7.29Y-4.678
X11.195Y-5.13
X11.195Y-5.43
X14.413Y-5.122
X14.413Y-5.422
X4.01Y-6.61
X4.01Y-6.91
X10.291Y-4.371
X10.291Y-4.671
X9.344Y-5.862
X9.344Y-6.162
X2.238Y-5.886
X2.238Y-6.186
X4.857Y-5.865
X4.857Y-6.165
X5.601Y-5.862
X5.601Y-6.162
X5.789Y-4.377
X5.789Y-4.677
X10.637Y-6.614
X10.637Y-6.914
X8.777Y-4.366
X8.777Y-4.666
X8.975Y-5.131
X8.975Y-5.431
X7.867Y-5.859
X7.867Y-6.159
X3.914Y-3.628
X3.914Y-3.928
X14.398Y-5.869
X14.398Y-6.169
X13.255Y-4.374
X13.255Y-4.674
X10.102Y-5.862
X10.102Y-6.162
X5.039Y-4.377
X5.039Y-4.677
X13.975Y-3.616
X13.975Y-3.916
X12.338Y-5.863
X12.338Y-6.163
X10.474Y-5.131
X10.474Y-5.431
X6.353Y-5.86
X6.353Y-6.16
X5.974Y-5.127
X5.974Y-5.427
X8.03Y-4.369
X8.03Y-4.669
X5.898Y-6.612
X5.898Y-6.912
X5.222Y-5.127
X5.222Y-5.427
X11.58Y-5.864
X11.58Y-6.164
X10.538Y-6.614
X10.538Y-6.914
X5.413Y-3.628
X5.413Y-3.928
X10.844Y-5.865
X10.844Y-6.165
X8.605Y-5.86
X8.605Y-6.16
X14.413Y-4.614
X14.413Y-4.914
X4.662Y-3.628
X4.662Y-3.928
X14.305Y-3.615
X14.305Y-3.915
X12.545Y-4.374
X12.545Y-4.674
X7.475Y-5.127
X7.475Y-5.427
X4.123Y-4.377
X4.123Y-4.677
X8.224Y-5.127
X8.224Y-5.427
X9.922Y-3.624
X9.922Y-3.924
X12.763Y-5.122
X12.763Y-5.422
X13.646Y-5.865
X13.646Y-6.165
X6.721Y-5.127
X6.721Y-5.427
T3
X2.315Y-3.416
X2.315Y-3.516
X2.315Y-3.616
X2.315Y-3.716
X2.315Y-3.816
X2.315Y-3.916
X2.315Y-4.016
X2.315Y-4.116
X2.315Y-4.216
X2.315Y-4.316
X2.315Y-4.416
X2.315Y-4.516
X2.315Y-4.616
X2.315Y-4.716
X2.315Y-4.816
X2.315Y-4.916
X2.315Y-5.016
X2.315Y-5.116
X2.315Y-5.216
X2.315Y-5.316
X2.915Y-3.416
X2.915Y-3.516
X2.915Y-3.616
X2.915Y-3.716
X2.915Y-3.816
X2.915Y-3.916
X2.915Y-4.016
X2.915Y-4.116
X2.915Y-4.216
X2.915Y-4.316
X2.915Y-4.416
X2.915Y-4.516
X2.915Y-4.616
X2.915Y-4.716
X2.915Y-4.816
X2.915Y-4.916
X2.915Y-5.016
X2.915Y-5.116
X2.915Y-5.216
X2.915Y-5.316
T4
X3.238Y-3.659
X3.238Y-3.7574
X3.238Y-3.8559
X3.8089Y-3.659
X3.8089Y-3.8559
X2.3621Y-5.9371
X2.3621Y-6.134
X2.933Y-5.9371
X2.933Y-6.0356
X2.933Y-6.134
X2.1295Y-3.788
X14.489Y-3.661
X14.489Y-3.7594
X14.489Y-3.8579
X15.0599Y-3.661
X15.0599Y-3.8579
T5
X4.883Y-3.6605
X5.133Y-3.5605
X11.074Y-6.662
X11.324Y-6.562
X7.322Y-5.912
X7.572Y-5.812
X10.699Y-5.162
X10.949Y-5.062
X8.168Y-6.662
X8.418Y-6.562
X5.821Y-5.912
X6.071Y-5.812
X7.511Y-4.411
X7.761Y-4.311
X4.321Y-5.912
X4.571Y-5.812
X10.134Y-3.6605
X10.384Y-3.5605
X13.886Y-6.663
X14.136Y-6.563
X12.014Y-4.411
X12.264Y-4.311
X9.572Y-5.912
X9.822Y-5.812
X5.071Y-5.912
X5.321Y-5.812
X13.884Y-5.912
X14.134Y-5.812
X7.883Y-3.6605
X8.133Y-3.5605
X4.697Y-6.661
X4.947Y-6.561
X4.133Y-3.6605
X4.383Y-3.5605
X10.512Y-4.411
X10.762Y-4.311
X3.852Y-5.911
X4.102Y-5.811
X13.512Y-3.6605
X13.762Y-3.5605
X7.133Y-3.6605
X7.383Y-3.5605
X7.895Y-6.662
X8.145Y-6.562
X13.7Y-4.411
X13.95Y-4.311
X13.797Y-4.786
X14.047Y-4.686
X8.261Y-4.411
X8.511Y-4.311
X5.354Y-6.663
X5.604Y-6.563
X3.571Y-4.411
X3.821Y-4.311
X8.634Y-3.6605
X8.884Y-3.5605
X10.322Y-5.912
X10.572Y-5.812
X11.635Y-3.66
X11.885Y-3.56
X6.761Y-4.411
X7.011Y-4.311
X10.884Y-3.6605
X11.134Y-3.5605
X9.384Y-3.6605
X9.634Y-3.5605
X6.01Y-4.411
X6.26Y-4.311
X10.887Y-6.663
X11.137Y-6.563
X3.478Y-6.662
X3.728Y-6.562
X12.197Y-6.662
X12.447Y-6.562
X8.447Y-5.162
X8.697Y-5.062
X12.199Y-5.162
X12.449Y-5.062
X12.386Y-3.6605
X12.636Y-3.5605
X4.509Y-4.411
X4.759Y-4.311
X5.633Y-3.6605
X5.883Y-3.5605
X6.571Y-5.912
X6.821Y-5.812
X13.134Y-6.662
X13.384Y-6.562
X14.637Y-5.912
X14.887Y-5.812
X9.762Y-4.411
X10.012Y-4.311
X11.072Y-5.912
X11.322Y-5.812
X4.416Y-6.662
X4.666Y-6.562
X6.945Y-5.161
X7.195Y-5.061
X11.822Y-5.912
X12.072Y-5.812
X5.446Y-5.162
X5.696Y-5.062
X11.263Y-4.411
X11.513Y-4.311
X9.948Y-5.162
X10.198Y-5.062
X13.417Y-5.162
X13.667Y-5.062
X14.637Y-3.6605
X14.887Y-3.5605
X11.636Y-6.663
X11.886Y-6.563
X7.697Y-5.162
X7.947Y-5.062
X6.194Y-5.161
X6.444Y-5.061
X4.696Y-5.162
X4.946Y-5.062
X9.198Y-5.162
X9.448Y-5.062
X12.852Y-5.912
X13.102Y-5.812
X3.572Y-6.661
X3.822Y-6.561
X3.478Y-5.912
X3.728Y-5.812
X3.478Y-5.162
X3.728Y-5.062
X12.385Y-6.663
X12.635Y-6.563
X3.665Y-5.162
X3.915Y-5.062
X5.26Y-4.411
X5.51Y-4.311
X8.072Y-5.912
X8.322Y-5.812
X12.949Y-5.162
X13.199Y-5.062
X6.383Y-3.6605
X6.633Y-3.5605
X14.637Y-5.161
X14.887Y-5.061
X8.822Y-5.912
X9.072Y-5.812
X9.011Y-4.411
X9.261Y-4.311
X12.764Y-4.411
X13.014Y-4.311
X14.637Y-4.411
X14.887Y-4.311
X14.637Y-6.662
X14.887Y-6.562
X3.3827Y-3.6605
X3.6327Y-3.5605
X11.449Y-5.162
X11.699Y-5.062
T6
X4.833Y-3.7605
X5.233Y-3.7605
X11.024Y-6.762
X11.424Y-6.762
X7.272Y-6.012
X7.672Y-6.012
X10.649Y-5.262
X11.049Y-5.262
X8.118Y-6.762
X8.518Y-6.762
X5.771Y-6.012
X6.171Y-6.012
X7.461Y-4.511
X7.861Y-4.511
X4.271Y-6.012
X4.671Y-6.012
X10.084Y-3.7605
X10.484Y-3.7605
X13.836Y-6.763
X14.236Y-6.763
X11.964Y-4.511
X12.364Y-4.511
X9.522Y-6.012
X9.922Y-6.012
X5.021Y-6.012
X5.421Y-6.012
X13.834Y-6.012
X14.234Y-6.012
X7.833Y-3.7605
X8.233Y-3.7605
X4.647Y-6.761
X5.047Y-6.761
X4.083Y-3.7605
X4.483Y-3.7605
X10.462Y-4.511
X10.862Y-4.511
X3.802Y-6.011
X4.202Y-6.011
X13.462Y-3.7605
X13.862Y-3.7605
X7.083Y-3.7605
X7.483Y-3.7605
X7.845Y-6.762
X8.245Y-6.762
X13.65Y-4.511
X14.05Y-4.511
X13.747Y-4.886
X14.147Y-4.886
X8.211Y-4.511
X8.611Y-4.511
X5.304Y-6.763
X5.704Y-6.763
X3.521Y-4.511
X3.921Y-4.511
X8.584Y-3.7605
X8.984Y-3.7605
X10.272Y-6.012
X10.672Y-6.012
X11.585Y-3.76
X11.985Y-3.76
X6.711Y-4.511
X7.111Y-4.511
X10.834Y-3.7605
X11.234Y-3.7605
X9.334Y-3.7605
X9.734Y-3.7605
X5.96Y-4.511
X6.36Y-4.511
X10.837Y-6.763
X11.237Y-6.763
X3.428Y-6.762
X3.828Y-6.762
X12.147Y-6.762
X12.547Y-6.762
X8.397Y-5.262
X8.797Y-5.262
X12.149Y-5.262
X12.549Y-5.262
X12.336Y-3.7605
X12.736Y-3.7605
X4.459Y-4.511
X4.859Y-4.511
X5.583Y-3.7605
X5.983Y-3.7605
X6.521Y-6.012
X6.921Y-6.012
X13.084Y-6.762
X13.484Y-6.762
X14.587Y-6.012
X14.987Y-6.012
X9.712Y-4.511
X10.112Y-4.511
X11.022Y-6.012
X11.422Y-6.012
X4.366Y-6.762
X4.766Y-6.762
X6.895Y-5.261
X7.295Y-5.261
X11.772Y-6.012
X12.172Y-6.012
X5.396Y-5.262
X5.796Y-5.262
X11.213Y-4.511
X11.613Y-4.511
X9.898Y-5.262
X10.298Y-5.262
X13.367Y-5.262
X13.767Y-5.262
X14.587Y-3.7605
X14.987Y-3.7605
X11.586Y-6.763
X11.986Y-6.763
X7.647Y-5.262
X8.047Y-5.262
X6.144Y-5.261
X6.544Y-5.261
X4.646Y-5.262
X5.046Y-5.262
X9.148Y-5.262
X9.548Y-5.262
X12.802Y-6.012
X13.202Y-6.012
X3.522Y-6.761
X3.922Y-6.761
X3.428Y-6.012
X3.828Y-6.012
X3.428Y-5.262
X3.828Y-5.262
X12.335Y-6.763
X12.735Y-6.763
X3.615Y-5.262
X4.015Y-5.262
X5.21Y-4.511
X5.61Y-4.511
X8.022Y-6.012
X8.422Y-6.012
X12.899Y-5.262
X13.299Y-5.262
X6.333Y-3.7605
X6.733Y-3.7605
X14.587Y-5.261
X14.987Y-5.261
X8.772Y-6.012
X9.172Y-6.012
X8.961Y-4.511
X9.361Y-4.511
X12.714Y-4.511
X13.114Y-4.511
X14.587Y-4.511
X14.987Y-4.511
X14.587Y-6.762
X14.987Y-6.762
X3.3327Y-3.7605
X3.7327Y-3.7605
X11.399Y-5.262
X11.799Y-5.262
T7
X14.0355Y-4.9864
X3.5335Y-5.7354
X13.1935Y-3.4849
X14.1305Y-3.4849
X13.6714Y-4.4175
X13.6714Y-5.3545
X13.0985Y-4.9864
X6.3495Y-6.4864
X10.2865Y-6.4864
X4.4705Y-5.7354
T8
X5.596Y-5.638
X15.2485Y-7.0415
X8.795Y-4.127
X15.2485Y-3.5965
X10.847Y-5.638
X2.109Y-3.5965
X2.109Y-7.041
X14.352Y-6.398
X7.401Y-6.537
X14.381Y-4.133
T9
X5.033Y-3.7605
X11.224Y-6.762
X7.472Y-6.012
X10.849Y-5.262
X6.3495Y-7.0864
X8.318Y-6.762
X10.2865Y-7.0864
X5.971Y-6.012
X7.661Y-4.511
X4.471Y-6.012
X10.284Y-3.7605
X14.036Y-6.763
X12.164Y-4.511
X9.722Y-6.012
X5.221Y-6.012
X14.034Y-6.012
X8.033Y-3.7605
X4.847Y-6.761
X4.283Y-3.7605
X10.662Y-4.511
X3.5335Y-6.3354
X4.002Y-6.011
X4.4705Y-6.3354
X13.1935Y-4.0849
X13.662Y-3.7605
X14.1305Y-4.0849
X7.283Y-3.7605
X8.045Y-6.762
X13.85Y-4.511
X13.947Y-4.886
X14.2714Y-4.4175
X14.2714Y-5.3545
X8.411Y-4.511
X5.504Y-6.763
X3.721Y-4.511
X8.784Y-3.7605
X10.472Y-6.012
X11.785Y-3.76
X6.911Y-4.511
X11.034Y-3.7605
X9.534Y-3.7605
X6.16Y-4.511
X11.037Y-6.763
X3.628Y-6.762
X12.347Y-6.762
X8.597Y-5.262
X12.349Y-5.262
X12.536Y-3.7605
X4.659Y-4.511
X5.783Y-3.7605
X6.721Y-6.012
X13.284Y-6.762
X14.787Y-6.012
X9.912Y-4.511
X11.222Y-6.012
X4.566Y-6.762
X7.095Y-5.261
X11.972Y-6.012
X5.596Y-5.262
X11.413Y-4.511
X10.098Y-5.262
X13.0985Y-5.5864
X13.567Y-5.262
X14.0355Y-5.5864
X14.787Y-3.7605
X11.786Y-6.763
X7.847Y-5.262
X6.344Y-5.261
X4.846Y-5.262
X9.348Y-5.262
X13.002Y-6.012
X3.722Y-6.761
X3.628Y-6.012
X3.628Y-5.262
X12.535Y-6.763
X3.815Y-5.262
X5.41Y-4.511
X8.222Y-6.012
X13.099Y-5.262
X6.533Y-3.7605
X14.787Y-5.261
X8.972Y-6.012
X9.161Y-4.511
X12.914Y-4.511
X14.787Y-4.511
X14.787Y-6.762
X3.5328Y-3.7605
X11.599Y-5.262
T5
G00X14.7587Y-3.539
M15
G01X14.8099Y-3.539
M16
G05
G00X14.7587Y-3.9799
M15
G01X14.8099Y-3.9799
M16
G05
G00X3.5077Y-3.537
M15
G01X3.5589Y-3.537
M16
G05
G00X3.5077Y-3.9779
M15
G01X3.5589Y-3.9779
M16
G05
G00X2.6633Y-5.8151
M15
G01X2.6121Y-5.8151
M16
G05
G00X2.6633Y-6.256
M15
G01X2.6121Y-6.256
M16
G05
T0
M30
